%TF.GenerationSoftware,KiCad,Pcbnew,8.0.1*%
%TF.CreationDate,2024-03-19T22:23:22+08:00*%
%TF.ProjectId,NVF2-SCS-Check-Indicate,4e564632-2d53-4435-932d-436865636b2d,1*%
%TF.SameCoordinates,Original*%
%TF.FileFunction,Drillmap*%
%TF.FilePolarity,Positive*%
%FSLAX45Y45*%
G04 Gerber Fmt 4.5, Leading zero omitted, Abs format (unit mm)*
G04 Created by KiCad (PCBNEW 8.0.1) date 2024-03-19 22:23:22*
%MOMM*%
%LPD*%
G01*
G04 APERTURE LIST*
%ADD10C,0.100000*%
%ADD11C,0.200000*%
%ADD12C,0.430000*%
G04 APERTURE END LIST*
D10*
X10900000Y-7500000D02*
X10900000Y-7500000D01*
G75*
G02*
X11500000Y-8100000I0J-600000D01*
G01*
X11500000Y-11900000D01*
G75*
G02*
X10900000Y-12500000I-600000J0D01*
G01*
X4100000Y-12500000D01*
G75*
G02*
X3500000Y-11900000I0J600000D01*
G01*
X3500000Y-8100000D01*
G75*
G02*
X4100000Y-7500000I600000J0D01*
G01*
X10900000Y-7500000D01*
D11*
D10*
X4198507Y-9447383D02*
X4233507Y-9482383D01*
X4233507Y-9447383D02*
X4198507Y-9482383D01*
X4607500Y-9267500D02*
X4642500Y-9302500D01*
X4642500Y-9267500D02*
X4607500Y-9302500D01*
X4870000Y-11807500D02*
X4905000Y-11842500D01*
X4905000Y-11807500D02*
X4870000Y-11842500D01*
X5332500Y-10592500D02*
X5367500Y-10627500D01*
X5367500Y-10592500D02*
X5332500Y-10627500D01*
X5332500Y-10752500D02*
X5367500Y-10787500D01*
X5367500Y-10752500D02*
X5332500Y-10787500D01*
X5332500Y-10922500D02*
X5367500Y-10957500D01*
X5367500Y-10922500D02*
X5332500Y-10957500D01*
X5332500Y-11082500D02*
X5367500Y-11117500D01*
X5367500Y-11082500D02*
X5332500Y-11117500D01*
X5377500Y-9762500D02*
X5412500Y-9797500D01*
X5412500Y-9762500D02*
X5377500Y-9797500D01*
X5472500Y-9932500D02*
X5507500Y-9967500D01*
X5507500Y-9932500D02*
X5472500Y-9967500D01*
X5697500Y-11810000D02*
X5732500Y-11845000D01*
X5732500Y-11810000D02*
X5697500Y-11845000D01*
X5737500Y-10587500D02*
X5772500Y-10622500D01*
X5772500Y-10587500D02*
X5737500Y-10622500D01*
X5737500Y-10752500D02*
X5772500Y-10787500D01*
X5772500Y-10752500D02*
X5737500Y-10787500D01*
X5737500Y-10917500D02*
X5772500Y-10952500D01*
X5772500Y-10917500D02*
X5737500Y-10952500D01*
X6072500Y-9762500D02*
X6107500Y-9797500D01*
X6107500Y-9762500D02*
X6072500Y-9797500D01*
X6167500Y-10007500D02*
X6202500Y-10042500D01*
X6202500Y-10007500D02*
X6167500Y-10042500D01*
X6415000Y-10780000D02*
X6450000Y-10815000D01*
X6450000Y-10780000D02*
X6415000Y-10815000D01*
X6455000Y-10505500D02*
X6490000Y-10540500D01*
X6490000Y-10505500D02*
X6455000Y-10540500D01*
X6500000Y-9985000D02*
X6535000Y-10020000D01*
X6535000Y-9985000D02*
X6500000Y-10020000D01*
X6562500Y-10637500D02*
X6597500Y-10672500D01*
X6597500Y-10637500D02*
X6562500Y-10672500D01*
X6702500Y-10382500D02*
X6737500Y-10417500D01*
X6737500Y-10382500D02*
X6702500Y-10417500D01*
X6702500Y-10887500D02*
X6737500Y-10922500D01*
X6737500Y-10887500D02*
X6702500Y-10922500D01*
X6772500Y-9762500D02*
X6807500Y-9797500D01*
X6807500Y-9762500D02*
X6772500Y-9797500D01*
X6827500Y-11137500D02*
X6862500Y-11172500D01*
X6862500Y-11137500D02*
X6827500Y-11172500D01*
X6867500Y-9977500D02*
X6902500Y-10012500D01*
X6902500Y-9977500D02*
X6867500Y-10012500D01*
X6942500Y-11137500D02*
X6977500Y-11172500D01*
X6977500Y-11137500D02*
X6942500Y-11172500D01*
X7222500Y-9762500D02*
X7257500Y-9797500D01*
X7257500Y-9762500D02*
X7222500Y-9797500D01*
X7472500Y-9762500D02*
X7507500Y-9797500D01*
X7507500Y-9762500D02*
X7472500Y-9797500D01*
X7567500Y-9892500D02*
X7602500Y-9927500D01*
X7602500Y-9892500D02*
X7567500Y-9927500D01*
X7567500Y-10632500D02*
X7602500Y-10667500D01*
X7602500Y-10632500D02*
X7567500Y-10667500D01*
X7567500Y-10887500D02*
X7602500Y-10922500D01*
X7602500Y-10887500D02*
X7567500Y-10922500D01*
X7621283Y-11537466D02*
X7656283Y-11572466D01*
X7656283Y-11537466D02*
X7621283Y-11572466D01*
X7692500Y-10759500D02*
X7727500Y-10794500D01*
X7727500Y-10759500D02*
X7692500Y-10794500D01*
X7792500Y-10082500D02*
X7827500Y-10117500D01*
X7827500Y-10082500D02*
X7792500Y-10117500D01*
X7792500Y-10252500D02*
X7827500Y-10287500D01*
X7827500Y-10252500D02*
X7792500Y-10287500D01*
X7792500Y-11117500D02*
X7827500Y-11152500D01*
X7827500Y-11117500D02*
X7792500Y-11152500D01*
X7792500Y-11537500D02*
X7827500Y-11572500D01*
X7827500Y-11537500D02*
X7792500Y-11572500D01*
X8177500Y-9762500D02*
X8212500Y-9797500D01*
X8212500Y-9762500D02*
X8177500Y-9797500D01*
X8477500Y-10162500D02*
X8512500Y-10197500D01*
X8512500Y-10162500D02*
X8477500Y-10197500D01*
X8477500Y-10267500D02*
X8512500Y-10302500D01*
X8512500Y-10267500D02*
X8477500Y-10302500D01*
X8687500Y-9762500D02*
X8722500Y-9797500D01*
X8722500Y-9762500D02*
X8687500Y-9797500D01*
X8877500Y-9762500D02*
X8912500Y-9797500D01*
X8912500Y-9762500D02*
X8877500Y-9797500D01*
X9177500Y-10162500D02*
X9212500Y-10197500D01*
X9212500Y-10162500D02*
X9177500Y-10197500D01*
X9177500Y-10267500D02*
X9212500Y-10302500D01*
X9212500Y-10267500D02*
X9177500Y-10302500D01*
X9217500Y-9892500D02*
X9252500Y-9927500D01*
X9252500Y-9892500D02*
X9217500Y-9927500D01*
X5331700Y-8940000D02*
G75*
G02*
X5260300Y-8940000I-35700J0D01*
G01*
X5260300Y-8940000D02*
G75*
G02*
X5331700Y-8940000I35700J0D01*
G01*
X5585700Y-8686000D02*
G75*
G02*
X5514300Y-8686000I-35700J0D01*
G01*
X5514300Y-8686000D02*
G75*
G02*
X5585700Y-8686000I35700J0D01*
G01*
X5839700Y-8940000D02*
G75*
G02*
X5768300Y-8940000I-35700J0D01*
G01*
X5768300Y-8940000D02*
G75*
G02*
X5839700Y-8940000I35700J0D01*
G01*
X6031700Y-8940000D02*
G75*
G02*
X5960300Y-8940000I-35700J0D01*
G01*
X5960300Y-8940000D02*
G75*
G02*
X6031700Y-8940000I35700J0D01*
G01*
X6285700Y-8686000D02*
G75*
G02*
X6214300Y-8686000I-35700J0D01*
G01*
X6214300Y-8686000D02*
G75*
G02*
X6285700Y-8686000I35700J0D01*
G01*
X6539700Y-8940000D02*
G75*
G02*
X6468300Y-8940000I-35700J0D01*
G01*
X6468300Y-8940000D02*
G75*
G02*
X6539700Y-8940000I35700J0D01*
G01*
X6731700Y-8940000D02*
G75*
G02*
X6660300Y-8940000I-35700J0D01*
G01*
X6660300Y-8940000D02*
G75*
G02*
X6731700Y-8940000I35700J0D01*
G01*
X6985700Y-8686000D02*
G75*
G02*
X6914300Y-8686000I-35700J0D01*
G01*
X6914300Y-8686000D02*
G75*
G02*
X6985700Y-8686000I35700J0D01*
G01*
X7239700Y-8940000D02*
G75*
G02*
X7168300Y-8940000I-35700J0D01*
G01*
X7168300Y-8940000D02*
G75*
G02*
X7239700Y-8940000I35700J0D01*
G01*
X7431700Y-8940000D02*
G75*
G02*
X7360300Y-8940000I-35700J0D01*
G01*
X7360300Y-8940000D02*
G75*
G02*
X7431700Y-8940000I35700J0D01*
G01*
X7685700Y-8686000D02*
G75*
G02*
X7614300Y-8686000I-35700J0D01*
G01*
X7614300Y-8686000D02*
G75*
G02*
X7685700Y-8686000I35700J0D01*
G01*
X7939700Y-8940000D02*
G75*
G02*
X7868300Y-8940000I-35700J0D01*
G01*
X7868300Y-8940000D02*
G75*
G02*
X7939700Y-8940000I35700J0D01*
G01*
X8131700Y-8940000D02*
G75*
G02*
X8060300Y-8940000I-35700J0D01*
G01*
X8060300Y-8940000D02*
G75*
G02*
X8131700Y-8940000I35700J0D01*
G01*
X8385700Y-8686000D02*
G75*
G02*
X8314300Y-8686000I-35700J0D01*
G01*
X8314300Y-8686000D02*
G75*
G02*
X8385700Y-8686000I35700J0D01*
G01*
X8639700Y-8940000D02*
G75*
G02*
X8568300Y-8940000I-35700J0D01*
G01*
X8568300Y-8940000D02*
G75*
G02*
X8639700Y-8940000I35700J0D01*
G01*
X8831700Y-8940000D02*
G75*
G02*
X8760300Y-8940000I-35700J0D01*
G01*
X8760300Y-8940000D02*
G75*
G02*
X8831700Y-8940000I35700J0D01*
G01*
X9085700Y-8686000D02*
G75*
G02*
X9014300Y-8686000I-35700J0D01*
G01*
X9014300Y-8686000D02*
G75*
G02*
X9085700Y-8686000I35700J0D01*
G01*
X9339700Y-8940000D02*
G75*
G02*
X9268300Y-8940000I-35700J0D01*
G01*
X9268300Y-8940000D02*
G75*
G02*
X9339700Y-8940000I35700J0D01*
G01*
X5450000Y-8127500D02*
X5450000Y-8202500D01*
X5412500Y-8165000D02*
X5487500Y-8165000D01*
X5650000Y-8127500D02*
X5650000Y-8202500D01*
X5612500Y-8165000D02*
X5687500Y-8165000D01*
X6100000Y-11517500D02*
X6100000Y-11592500D01*
X6062500Y-11555000D02*
X6137500Y-11555000D01*
X6100000Y-11717500D02*
X6100000Y-11792500D01*
X6062500Y-11755000D02*
X6137500Y-11755000D01*
X6150000Y-8127500D02*
X6150000Y-8202500D01*
X6112500Y-8165000D02*
X6187500Y-8165000D01*
X6300000Y-11517500D02*
X6300000Y-11592500D01*
X6262500Y-11555000D02*
X6337500Y-11555000D01*
X6300000Y-11717500D02*
X6300000Y-11792500D01*
X6262500Y-11755000D02*
X6337500Y-11755000D01*
X6350000Y-8127500D02*
X6350000Y-8202500D01*
X6312500Y-8165000D02*
X6387500Y-8165000D01*
X6500000Y-11517500D02*
X6500000Y-11592500D01*
X6462500Y-11555000D02*
X6537500Y-11555000D01*
X6500000Y-11717500D02*
X6500000Y-11792500D01*
X6462500Y-11755000D02*
X6537500Y-11755000D01*
X6700000Y-11517500D02*
X6700000Y-11592500D01*
X6662500Y-11555000D02*
X6737500Y-11555000D01*
X6700000Y-11717500D02*
X6700000Y-11792500D01*
X6662500Y-11755000D02*
X6737500Y-11755000D01*
X6850000Y-8127500D02*
X6850000Y-8202500D01*
X6812500Y-8165000D02*
X6887500Y-8165000D01*
X7050000Y-8127500D02*
X7050000Y-8202500D01*
X7012500Y-8165000D02*
X7087500Y-8165000D01*
X7200000Y-11792500D02*
X7200000Y-11867500D01*
X7162500Y-11830000D02*
X7237500Y-11830000D01*
X7400000Y-11792500D02*
X7400000Y-11867500D01*
X7362500Y-11830000D02*
X7437500Y-11830000D01*
X7550000Y-8127500D02*
X7550000Y-8202500D01*
X7512500Y-8165000D02*
X7587500Y-8165000D01*
X7600000Y-11792500D02*
X7600000Y-11867500D01*
X7562500Y-11830000D02*
X7637500Y-11830000D01*
X7750000Y-8127500D02*
X7750000Y-8202500D01*
X7712500Y-8165000D02*
X7787500Y-8165000D01*
X7800000Y-11792500D02*
X7800000Y-11867500D01*
X7762500Y-11830000D02*
X7837500Y-11830000D01*
X8250000Y-8127500D02*
X8250000Y-8202500D01*
X8212500Y-8165000D02*
X8287500Y-8165000D01*
X8300000Y-11792500D02*
X8300000Y-11867500D01*
X8262500Y-11830000D02*
X8337500Y-11830000D01*
X8450000Y-8127500D02*
X8450000Y-8202500D01*
X8412500Y-8165000D02*
X8487500Y-8165000D01*
X8500000Y-11792500D02*
X8500000Y-11867500D01*
X8462500Y-11830000D02*
X8537500Y-11830000D01*
X8950000Y-8127500D02*
X8950000Y-8202500D01*
X8912500Y-8165000D02*
X8987500Y-8165000D01*
X9000000Y-11792500D02*
X9000000Y-11867500D01*
X8962500Y-11830000D02*
X9037500Y-11830000D01*
X9150000Y-8127500D02*
X9150000Y-8202500D01*
X9112500Y-8165000D02*
X9187500Y-8165000D01*
X9200000Y-11792500D02*
X9200000Y-11867500D01*
X9162500Y-11830000D02*
X9237500Y-11830000D01*
X5045096Y-9292856D02*
X5045096Y-9222144D01*
X4974385Y-9222144D01*
X4974385Y-9292856D01*
X5045096Y-9292856D01*
X5045096Y-9546856D02*
X5045096Y-9476144D01*
X4974385Y-9476144D01*
X4974385Y-9546856D01*
X5045096Y-9546856D01*
X5045096Y-9800856D02*
X5045096Y-9730144D01*
X4974385Y-9730144D01*
X4974385Y-9800856D01*
X5045096Y-9800856D01*
X5045096Y-10054856D02*
X5045096Y-9984144D01*
X4974385Y-9984144D01*
X4974385Y-10054856D01*
X5045096Y-10054856D01*
X5045096Y-10308856D02*
X5045096Y-10238144D01*
X4974385Y-10238144D01*
X4974385Y-10308856D01*
X5045096Y-10308856D01*
X5045096Y-10562856D02*
X5045096Y-10492144D01*
X4974385Y-10492144D01*
X4974385Y-10562856D01*
X5045096Y-10562856D01*
X5045096Y-10816856D02*
X5045096Y-10746144D01*
X4974385Y-10746144D01*
X4974385Y-10816856D01*
X5045096Y-10816856D01*
X5045096Y-11070856D02*
X5045096Y-11000144D01*
X4974385Y-11000144D01*
X4974385Y-11070856D01*
X5045096Y-11070856D01*
X9617096Y-9292856D02*
X9617096Y-9222144D01*
X9546385Y-9222144D01*
X9546385Y-9292856D01*
X9617096Y-9292856D01*
X9617096Y-9546856D02*
X9617096Y-9476144D01*
X9546385Y-9476144D01*
X9546385Y-9546856D01*
X9617096Y-9546856D01*
X9617096Y-9800856D02*
X9617096Y-9730144D01*
X9546385Y-9730144D01*
X9546385Y-9800856D01*
X9617096Y-9800856D01*
X9617096Y-10054856D02*
X9617096Y-9984144D01*
X9546385Y-9984144D01*
X9546385Y-10054856D01*
X9617096Y-10054856D01*
X9617096Y-10308856D02*
X9617096Y-10238144D01*
X9546385Y-10238144D01*
X9546385Y-10308856D01*
X9617096Y-10308856D01*
X9617096Y-10562856D02*
X9617096Y-10492144D01*
X9546385Y-10492144D01*
X9546385Y-10562856D01*
X9617096Y-10562856D01*
X9617096Y-10816856D02*
X9617096Y-10746144D01*
X9546385Y-10746144D01*
X9546385Y-10816856D01*
X9617096Y-10816856D01*
X9617096Y-11070856D02*
X9617096Y-11000144D01*
X9546385Y-11000144D01*
X9546385Y-11070856D01*
X9617096Y-11070856D01*
D12*
X4100000Y-8315000D02*
X4315000Y-8100000D01*
X4100000Y-7885000D01*
X3885000Y-8100000D01*
X4100000Y-8315000D01*
X4100000Y-12115000D02*
X4315000Y-11900000D01*
X4100000Y-11685000D01*
X3885000Y-11900000D01*
X4100000Y-12115000D01*
X10900000Y-8315000D02*
X11115000Y-8100000D01*
X10900000Y-7885000D01*
X10685000Y-8100000D01*
X10900000Y-8315000D01*
X10900000Y-12115000D02*
X11115000Y-11900000D01*
X10900000Y-11685000D01*
X10685000Y-11900000D01*
X10900000Y-12115000D01*
D11*
X3755777Y-12816484D02*
X3755777Y-12616484D01*
X3755777Y-12616484D02*
X3803396Y-12616484D01*
X3803396Y-12616484D02*
X3831967Y-12626008D01*
X3831967Y-12626008D02*
X3851015Y-12645055D01*
X3851015Y-12645055D02*
X3860539Y-12664103D01*
X3860539Y-12664103D02*
X3870062Y-12702198D01*
X3870062Y-12702198D02*
X3870062Y-12730769D01*
X3870062Y-12730769D02*
X3860539Y-12768865D01*
X3860539Y-12768865D02*
X3851015Y-12787912D01*
X3851015Y-12787912D02*
X3831967Y-12806960D01*
X3831967Y-12806960D02*
X3803396Y-12816484D01*
X3803396Y-12816484D02*
X3755777Y-12816484D01*
X3955777Y-12816484D02*
X3955777Y-12683150D01*
X3955777Y-12721246D02*
X3965301Y-12702198D01*
X3965301Y-12702198D02*
X3974824Y-12692674D01*
X3974824Y-12692674D02*
X3993872Y-12683150D01*
X3993872Y-12683150D02*
X4012920Y-12683150D01*
X4079586Y-12816484D02*
X4079586Y-12683150D01*
X4079586Y-12616484D02*
X4070062Y-12626008D01*
X4070062Y-12626008D02*
X4079586Y-12635531D01*
X4079586Y-12635531D02*
X4089110Y-12626008D01*
X4089110Y-12626008D02*
X4079586Y-12616484D01*
X4079586Y-12616484D02*
X4079586Y-12635531D01*
X4203396Y-12816484D02*
X4184348Y-12806960D01*
X4184348Y-12806960D02*
X4174824Y-12787912D01*
X4174824Y-12787912D02*
X4174824Y-12616484D01*
X4308158Y-12816484D02*
X4289110Y-12806960D01*
X4289110Y-12806960D02*
X4279586Y-12787912D01*
X4279586Y-12787912D02*
X4279586Y-12616484D01*
X4536729Y-12816484D02*
X4536729Y-12616484D01*
X4536729Y-12616484D02*
X4603396Y-12759341D01*
X4603396Y-12759341D02*
X4670063Y-12616484D01*
X4670063Y-12616484D02*
X4670063Y-12816484D01*
X4851015Y-12816484D02*
X4851015Y-12711722D01*
X4851015Y-12711722D02*
X4841491Y-12692674D01*
X4841491Y-12692674D02*
X4822444Y-12683150D01*
X4822444Y-12683150D02*
X4784348Y-12683150D01*
X4784348Y-12683150D02*
X4765301Y-12692674D01*
X4851015Y-12806960D02*
X4831967Y-12816484D01*
X4831967Y-12816484D02*
X4784348Y-12816484D01*
X4784348Y-12816484D02*
X4765301Y-12806960D01*
X4765301Y-12806960D02*
X4755777Y-12787912D01*
X4755777Y-12787912D02*
X4755777Y-12768865D01*
X4755777Y-12768865D02*
X4765301Y-12749817D01*
X4765301Y-12749817D02*
X4784348Y-12740293D01*
X4784348Y-12740293D02*
X4831967Y-12740293D01*
X4831967Y-12740293D02*
X4851015Y-12730769D01*
X4946253Y-12683150D02*
X4946253Y-12883150D01*
X4946253Y-12692674D02*
X4965301Y-12683150D01*
X4965301Y-12683150D02*
X5003396Y-12683150D01*
X5003396Y-12683150D02*
X5022444Y-12692674D01*
X5022444Y-12692674D02*
X5031967Y-12702198D01*
X5031967Y-12702198D02*
X5041491Y-12721246D01*
X5041491Y-12721246D02*
X5041491Y-12778388D01*
X5041491Y-12778388D02*
X5031967Y-12797436D01*
X5031967Y-12797436D02*
X5022444Y-12806960D01*
X5022444Y-12806960D02*
X5003396Y-12816484D01*
X5003396Y-12816484D02*
X4965301Y-12816484D01*
X4965301Y-12816484D02*
X4946253Y-12806960D01*
X5127205Y-12797436D02*
X5136729Y-12806960D01*
X5136729Y-12806960D02*
X5127205Y-12816484D01*
X5127205Y-12816484D02*
X5117682Y-12806960D01*
X5117682Y-12806960D02*
X5127205Y-12797436D01*
X5127205Y-12797436D02*
X5127205Y-12816484D01*
X5127205Y-12692674D02*
X5136729Y-12702198D01*
X5136729Y-12702198D02*
X5127205Y-12711722D01*
X5127205Y-12711722D02*
X5117682Y-12702198D01*
X5117682Y-12702198D02*
X5127205Y-12692674D01*
X5127205Y-12692674D02*
X5127205Y-12711722D01*
D10*
X3460000Y-13127500D02*
X3495000Y-13162500D01*
X3495000Y-13127500D02*
X3460000Y-13162500D01*
D11*
X3793872Y-13036484D02*
X3812920Y-13036484D01*
X3812920Y-13036484D02*
X3831967Y-13046008D01*
X3831967Y-13046008D02*
X3841491Y-13055531D01*
X3841491Y-13055531D02*
X3851015Y-13074579D01*
X3851015Y-13074579D02*
X3860539Y-13112674D01*
X3860539Y-13112674D02*
X3860539Y-13160293D01*
X3860539Y-13160293D02*
X3851015Y-13198388D01*
X3851015Y-13198388D02*
X3841491Y-13217436D01*
X3841491Y-13217436D02*
X3831967Y-13226960D01*
X3831967Y-13226960D02*
X3812920Y-13236484D01*
X3812920Y-13236484D02*
X3793872Y-13236484D01*
X3793872Y-13236484D02*
X3774824Y-13226960D01*
X3774824Y-13226960D02*
X3765301Y-13217436D01*
X3765301Y-13217436D02*
X3755777Y-13198388D01*
X3755777Y-13198388D02*
X3746253Y-13160293D01*
X3746253Y-13160293D02*
X3746253Y-13112674D01*
X3746253Y-13112674D02*
X3755777Y-13074579D01*
X3755777Y-13074579D02*
X3765301Y-13055531D01*
X3765301Y-13055531D02*
X3774824Y-13046008D01*
X3774824Y-13046008D02*
X3793872Y-13036484D01*
X3946253Y-13217436D02*
X3955777Y-13226960D01*
X3955777Y-13226960D02*
X3946253Y-13236484D01*
X3946253Y-13236484D02*
X3936729Y-13226960D01*
X3936729Y-13226960D02*
X3946253Y-13217436D01*
X3946253Y-13217436D02*
X3946253Y-13236484D01*
X4022443Y-13036484D02*
X4146253Y-13036484D01*
X4146253Y-13036484D02*
X4079586Y-13112674D01*
X4079586Y-13112674D02*
X4108158Y-13112674D01*
X4108158Y-13112674D02*
X4127205Y-13122198D01*
X4127205Y-13122198D02*
X4136729Y-13131722D01*
X4136729Y-13131722D02*
X4146253Y-13150769D01*
X4146253Y-13150769D02*
X4146253Y-13198388D01*
X4146253Y-13198388D02*
X4136729Y-13217436D01*
X4136729Y-13217436D02*
X4127205Y-13226960D01*
X4127205Y-13226960D02*
X4108158Y-13236484D01*
X4108158Y-13236484D02*
X4051015Y-13236484D01*
X4051015Y-13236484D02*
X4031967Y-13226960D01*
X4031967Y-13226960D02*
X4022443Y-13217436D01*
X4327205Y-13036484D02*
X4231967Y-13036484D01*
X4231967Y-13036484D02*
X4222444Y-13131722D01*
X4222444Y-13131722D02*
X4231967Y-13122198D01*
X4231967Y-13122198D02*
X4251015Y-13112674D01*
X4251015Y-13112674D02*
X4298634Y-13112674D01*
X4298634Y-13112674D02*
X4317682Y-13122198D01*
X4317682Y-13122198D02*
X4327205Y-13131722D01*
X4327205Y-13131722D02*
X4336729Y-13150769D01*
X4336729Y-13150769D02*
X4336729Y-13198388D01*
X4336729Y-13198388D02*
X4327205Y-13217436D01*
X4327205Y-13217436D02*
X4317682Y-13226960D01*
X4317682Y-13226960D02*
X4298634Y-13236484D01*
X4298634Y-13236484D02*
X4251015Y-13236484D01*
X4251015Y-13236484D02*
X4231967Y-13226960D01*
X4231967Y-13226960D02*
X4222444Y-13217436D01*
X4460539Y-13036484D02*
X4479586Y-13036484D01*
X4479586Y-13036484D02*
X4498634Y-13046008D01*
X4498634Y-13046008D02*
X4508158Y-13055531D01*
X4508158Y-13055531D02*
X4517682Y-13074579D01*
X4517682Y-13074579D02*
X4527205Y-13112674D01*
X4527205Y-13112674D02*
X4527205Y-13160293D01*
X4527205Y-13160293D02*
X4517682Y-13198388D01*
X4517682Y-13198388D02*
X4508158Y-13217436D01*
X4508158Y-13217436D02*
X4498634Y-13226960D01*
X4498634Y-13226960D02*
X4479586Y-13236484D01*
X4479586Y-13236484D02*
X4460539Y-13236484D01*
X4460539Y-13236484D02*
X4441491Y-13226960D01*
X4441491Y-13226960D02*
X4431967Y-13217436D01*
X4431967Y-13217436D02*
X4422444Y-13198388D01*
X4422444Y-13198388D02*
X4412920Y-13160293D01*
X4412920Y-13160293D02*
X4412920Y-13112674D01*
X4412920Y-13112674D02*
X4422444Y-13074579D01*
X4422444Y-13074579D02*
X4431967Y-13055531D01*
X4431967Y-13055531D02*
X4441491Y-13046008D01*
X4441491Y-13046008D02*
X4460539Y-13036484D01*
X4612920Y-13236484D02*
X4612920Y-13103150D01*
X4612920Y-13122198D02*
X4622444Y-13112674D01*
X4622444Y-13112674D02*
X4641491Y-13103150D01*
X4641491Y-13103150D02*
X4670063Y-13103150D01*
X4670063Y-13103150D02*
X4689110Y-13112674D01*
X4689110Y-13112674D02*
X4698634Y-13131722D01*
X4698634Y-13131722D02*
X4698634Y-13236484D01*
X4698634Y-13131722D02*
X4708158Y-13112674D01*
X4708158Y-13112674D02*
X4727205Y-13103150D01*
X4727205Y-13103150D02*
X4755777Y-13103150D01*
X4755777Y-13103150D02*
X4774825Y-13112674D01*
X4774825Y-13112674D02*
X4784348Y-13131722D01*
X4784348Y-13131722D02*
X4784348Y-13236484D01*
X4879586Y-13236484D02*
X4879586Y-13103150D01*
X4879586Y-13122198D02*
X4889110Y-13112674D01*
X4889110Y-13112674D02*
X4908158Y-13103150D01*
X4908158Y-13103150D02*
X4936729Y-13103150D01*
X4936729Y-13103150D02*
X4955777Y-13112674D01*
X4955777Y-13112674D02*
X4965301Y-13131722D01*
X4965301Y-13131722D02*
X4965301Y-13236484D01*
X4965301Y-13131722D02*
X4974825Y-13112674D01*
X4974825Y-13112674D02*
X4993872Y-13103150D01*
X4993872Y-13103150D02*
X5022444Y-13103150D01*
X5022444Y-13103150D02*
X5041491Y-13112674D01*
X5041491Y-13112674D02*
X5051015Y-13131722D01*
X5051015Y-13131722D02*
X5051015Y-13236484D01*
X5441491Y-13026960D02*
X5270063Y-13284103D01*
X5698634Y-13036484D02*
X5717682Y-13036484D01*
X5717682Y-13036484D02*
X5736729Y-13046008D01*
X5736729Y-13046008D02*
X5746253Y-13055531D01*
X5746253Y-13055531D02*
X5755777Y-13074579D01*
X5755777Y-13074579D02*
X5765301Y-13112674D01*
X5765301Y-13112674D02*
X5765301Y-13160293D01*
X5765301Y-13160293D02*
X5755777Y-13198388D01*
X5755777Y-13198388D02*
X5746253Y-13217436D01*
X5746253Y-13217436D02*
X5736729Y-13226960D01*
X5736729Y-13226960D02*
X5717682Y-13236484D01*
X5717682Y-13236484D02*
X5698634Y-13236484D01*
X5698634Y-13236484D02*
X5679586Y-13226960D01*
X5679586Y-13226960D02*
X5670063Y-13217436D01*
X5670063Y-13217436D02*
X5660539Y-13198388D01*
X5660539Y-13198388D02*
X5651015Y-13160293D01*
X5651015Y-13160293D02*
X5651015Y-13112674D01*
X5651015Y-13112674D02*
X5660539Y-13074579D01*
X5660539Y-13074579D02*
X5670063Y-13055531D01*
X5670063Y-13055531D02*
X5679586Y-13046008D01*
X5679586Y-13046008D02*
X5698634Y-13036484D01*
X5851015Y-13217436D02*
X5860539Y-13226960D01*
X5860539Y-13226960D02*
X5851015Y-13236484D01*
X5851015Y-13236484D02*
X5841491Y-13226960D01*
X5841491Y-13226960D02*
X5851015Y-13217436D01*
X5851015Y-13217436D02*
X5851015Y-13236484D01*
X5984348Y-13036484D02*
X6003396Y-13036484D01*
X6003396Y-13036484D02*
X6022444Y-13046008D01*
X6022444Y-13046008D02*
X6031967Y-13055531D01*
X6031967Y-13055531D02*
X6041491Y-13074579D01*
X6041491Y-13074579D02*
X6051015Y-13112674D01*
X6051015Y-13112674D02*
X6051015Y-13160293D01*
X6051015Y-13160293D02*
X6041491Y-13198388D01*
X6041491Y-13198388D02*
X6031967Y-13217436D01*
X6031967Y-13217436D02*
X6022444Y-13226960D01*
X6022444Y-13226960D02*
X6003396Y-13236484D01*
X6003396Y-13236484D02*
X5984348Y-13236484D01*
X5984348Y-13236484D02*
X5965301Y-13226960D01*
X5965301Y-13226960D02*
X5955777Y-13217436D01*
X5955777Y-13217436D02*
X5946253Y-13198388D01*
X5946253Y-13198388D02*
X5936729Y-13160293D01*
X5936729Y-13160293D02*
X5936729Y-13112674D01*
X5936729Y-13112674D02*
X5946253Y-13074579D01*
X5946253Y-13074579D02*
X5955777Y-13055531D01*
X5955777Y-13055531D02*
X5965301Y-13046008D01*
X5965301Y-13046008D02*
X5984348Y-13036484D01*
X6241491Y-13236484D02*
X6127206Y-13236484D01*
X6184348Y-13236484D02*
X6184348Y-13036484D01*
X6184348Y-13036484D02*
X6165301Y-13065055D01*
X6165301Y-13065055D02*
X6146253Y-13084103D01*
X6146253Y-13084103D02*
X6127206Y-13093627D01*
X6308158Y-13036484D02*
X6431967Y-13036484D01*
X6431967Y-13036484D02*
X6365301Y-13112674D01*
X6365301Y-13112674D02*
X6393872Y-13112674D01*
X6393872Y-13112674D02*
X6412920Y-13122198D01*
X6412920Y-13122198D02*
X6422444Y-13131722D01*
X6422444Y-13131722D02*
X6431967Y-13150769D01*
X6431967Y-13150769D02*
X6431967Y-13198388D01*
X6431967Y-13198388D02*
X6422444Y-13217436D01*
X6422444Y-13217436D02*
X6412920Y-13226960D01*
X6412920Y-13226960D02*
X6393872Y-13236484D01*
X6393872Y-13236484D02*
X6336729Y-13236484D01*
X6336729Y-13236484D02*
X6317682Y-13226960D01*
X6317682Y-13226960D02*
X6308158Y-13217436D01*
X6546253Y-13122198D02*
X6527206Y-13112674D01*
X6527206Y-13112674D02*
X6517682Y-13103150D01*
X6517682Y-13103150D02*
X6508158Y-13084103D01*
X6508158Y-13084103D02*
X6508158Y-13074579D01*
X6508158Y-13074579D02*
X6517682Y-13055531D01*
X6517682Y-13055531D02*
X6527206Y-13046008D01*
X6527206Y-13046008D02*
X6546253Y-13036484D01*
X6546253Y-13036484D02*
X6584348Y-13036484D01*
X6584348Y-13036484D02*
X6603396Y-13046008D01*
X6603396Y-13046008D02*
X6612920Y-13055531D01*
X6612920Y-13055531D02*
X6622444Y-13074579D01*
X6622444Y-13074579D02*
X6622444Y-13084103D01*
X6622444Y-13084103D02*
X6612920Y-13103150D01*
X6612920Y-13103150D02*
X6603396Y-13112674D01*
X6603396Y-13112674D02*
X6584348Y-13122198D01*
X6584348Y-13122198D02*
X6546253Y-13122198D01*
X6546253Y-13122198D02*
X6527206Y-13131722D01*
X6527206Y-13131722D02*
X6517682Y-13141246D01*
X6517682Y-13141246D02*
X6508158Y-13160293D01*
X6508158Y-13160293D02*
X6508158Y-13198388D01*
X6508158Y-13198388D02*
X6517682Y-13217436D01*
X6517682Y-13217436D02*
X6527206Y-13226960D01*
X6527206Y-13226960D02*
X6546253Y-13236484D01*
X6546253Y-13236484D02*
X6584348Y-13236484D01*
X6584348Y-13236484D02*
X6603396Y-13226960D01*
X6603396Y-13226960D02*
X6612920Y-13217436D01*
X6612920Y-13217436D02*
X6622444Y-13198388D01*
X6622444Y-13198388D02*
X6622444Y-13160293D01*
X6622444Y-13160293D02*
X6612920Y-13141246D01*
X6612920Y-13141246D02*
X6603396Y-13131722D01*
X6603396Y-13131722D02*
X6584348Y-13122198D01*
X6698634Y-13036484D02*
X6698634Y-13074579D01*
X6774825Y-13036484D02*
X6774825Y-13074579D01*
X7070063Y-13312674D02*
X7060539Y-13303150D01*
X7060539Y-13303150D02*
X7041491Y-13274579D01*
X7041491Y-13274579D02*
X7031968Y-13255531D01*
X7031968Y-13255531D02*
X7022444Y-13226960D01*
X7022444Y-13226960D02*
X7012920Y-13179341D01*
X7012920Y-13179341D02*
X7012920Y-13141246D01*
X7012920Y-13141246D02*
X7022444Y-13093627D01*
X7022444Y-13093627D02*
X7031968Y-13065055D01*
X7031968Y-13065055D02*
X7041491Y-13046008D01*
X7041491Y-13046008D02*
X7060539Y-13017436D01*
X7060539Y-13017436D02*
X7070063Y-13007912D01*
X7231968Y-13103150D02*
X7231968Y-13236484D01*
X7184348Y-13026960D02*
X7136729Y-13169817D01*
X7136729Y-13169817D02*
X7260539Y-13169817D01*
X7422444Y-13103150D02*
X7422444Y-13236484D01*
X7374825Y-13026960D02*
X7327206Y-13169817D01*
X7327206Y-13169817D02*
X7451015Y-13169817D01*
X7679587Y-13236484D02*
X7679587Y-13036484D01*
X7765301Y-13236484D02*
X7765301Y-13131722D01*
X7765301Y-13131722D02*
X7755777Y-13112674D01*
X7755777Y-13112674D02*
X7736730Y-13103150D01*
X7736730Y-13103150D02*
X7708158Y-13103150D01*
X7708158Y-13103150D02*
X7689110Y-13112674D01*
X7689110Y-13112674D02*
X7679587Y-13122198D01*
X7889110Y-13236484D02*
X7870063Y-13226960D01*
X7870063Y-13226960D02*
X7860539Y-13217436D01*
X7860539Y-13217436D02*
X7851015Y-13198388D01*
X7851015Y-13198388D02*
X7851015Y-13141246D01*
X7851015Y-13141246D02*
X7860539Y-13122198D01*
X7860539Y-13122198D02*
X7870063Y-13112674D01*
X7870063Y-13112674D02*
X7889110Y-13103150D01*
X7889110Y-13103150D02*
X7917682Y-13103150D01*
X7917682Y-13103150D02*
X7936730Y-13112674D01*
X7936730Y-13112674D02*
X7946253Y-13122198D01*
X7946253Y-13122198D02*
X7955777Y-13141246D01*
X7955777Y-13141246D02*
X7955777Y-13198388D01*
X7955777Y-13198388D02*
X7946253Y-13217436D01*
X7946253Y-13217436D02*
X7936730Y-13226960D01*
X7936730Y-13226960D02*
X7917682Y-13236484D01*
X7917682Y-13236484D02*
X7889110Y-13236484D01*
X8070063Y-13236484D02*
X8051015Y-13226960D01*
X8051015Y-13226960D02*
X8041491Y-13207912D01*
X8041491Y-13207912D02*
X8041491Y-13036484D01*
X8222444Y-13226960D02*
X8203396Y-13236484D01*
X8203396Y-13236484D02*
X8165301Y-13236484D01*
X8165301Y-13236484D02*
X8146253Y-13226960D01*
X8146253Y-13226960D02*
X8136730Y-13207912D01*
X8136730Y-13207912D02*
X8136730Y-13131722D01*
X8136730Y-13131722D02*
X8146253Y-13112674D01*
X8146253Y-13112674D02*
X8165301Y-13103150D01*
X8165301Y-13103150D02*
X8203396Y-13103150D01*
X8203396Y-13103150D02*
X8222444Y-13112674D01*
X8222444Y-13112674D02*
X8231968Y-13131722D01*
X8231968Y-13131722D02*
X8231968Y-13150769D01*
X8231968Y-13150769D02*
X8136730Y-13169817D01*
X8308158Y-13226960D02*
X8327206Y-13236484D01*
X8327206Y-13236484D02*
X8365301Y-13236484D01*
X8365301Y-13236484D02*
X8384349Y-13226960D01*
X8384349Y-13226960D02*
X8393873Y-13207912D01*
X8393873Y-13207912D02*
X8393873Y-13198388D01*
X8393873Y-13198388D02*
X8384349Y-13179341D01*
X8384349Y-13179341D02*
X8365301Y-13169817D01*
X8365301Y-13169817D02*
X8336730Y-13169817D01*
X8336730Y-13169817D02*
X8317682Y-13160293D01*
X8317682Y-13160293D02*
X8308158Y-13141246D01*
X8308158Y-13141246D02*
X8308158Y-13131722D01*
X8308158Y-13131722D02*
X8317682Y-13112674D01*
X8317682Y-13112674D02*
X8336730Y-13103150D01*
X8336730Y-13103150D02*
X8365301Y-13103150D01*
X8365301Y-13103150D02*
X8384349Y-13112674D01*
X8460539Y-13312674D02*
X8470063Y-13303150D01*
X8470063Y-13303150D02*
X8489111Y-13274579D01*
X8489111Y-13274579D02*
X8498634Y-13255531D01*
X8498634Y-13255531D02*
X8508158Y-13226960D01*
X8508158Y-13226960D02*
X8517682Y-13179341D01*
X8517682Y-13179341D02*
X8517682Y-13141246D01*
X8517682Y-13141246D02*
X8508158Y-13093627D01*
X8508158Y-13093627D02*
X8498634Y-13065055D01*
X8498634Y-13065055D02*
X8489111Y-13046008D01*
X8489111Y-13046008D02*
X8470063Y-13017436D01*
X8470063Y-13017436D02*
X8460539Y-13007912D01*
D10*
X3495000Y-13409000D02*
G75*
G02*
X3423600Y-13409000I-35700J0D01*
G01*
X3423600Y-13409000D02*
G75*
G02*
X3495000Y-13409000I35700J0D01*
G01*
D11*
X3793872Y-13300484D02*
X3812920Y-13300484D01*
X3812920Y-13300484D02*
X3831967Y-13310008D01*
X3831967Y-13310008D02*
X3841491Y-13319531D01*
X3841491Y-13319531D02*
X3851015Y-13338579D01*
X3851015Y-13338579D02*
X3860539Y-13376674D01*
X3860539Y-13376674D02*
X3860539Y-13424293D01*
X3860539Y-13424293D02*
X3851015Y-13462388D01*
X3851015Y-13462388D02*
X3841491Y-13481436D01*
X3841491Y-13481436D02*
X3831967Y-13490960D01*
X3831967Y-13490960D02*
X3812920Y-13500484D01*
X3812920Y-13500484D02*
X3793872Y-13500484D01*
X3793872Y-13500484D02*
X3774824Y-13490960D01*
X3774824Y-13490960D02*
X3765301Y-13481436D01*
X3765301Y-13481436D02*
X3755777Y-13462388D01*
X3755777Y-13462388D02*
X3746253Y-13424293D01*
X3746253Y-13424293D02*
X3746253Y-13376674D01*
X3746253Y-13376674D02*
X3755777Y-13338579D01*
X3755777Y-13338579D02*
X3765301Y-13319531D01*
X3765301Y-13319531D02*
X3774824Y-13310008D01*
X3774824Y-13310008D02*
X3793872Y-13300484D01*
X3946253Y-13481436D02*
X3955777Y-13490960D01*
X3955777Y-13490960D02*
X3946253Y-13500484D01*
X3946253Y-13500484D02*
X3936729Y-13490960D01*
X3936729Y-13490960D02*
X3946253Y-13481436D01*
X3946253Y-13481436D02*
X3946253Y-13500484D01*
X4022443Y-13300484D02*
X4155777Y-13300484D01*
X4155777Y-13300484D02*
X4070062Y-13500484D01*
X4336729Y-13500484D02*
X4222444Y-13500484D01*
X4279586Y-13500484D02*
X4279586Y-13300484D01*
X4279586Y-13300484D02*
X4260539Y-13329055D01*
X4260539Y-13329055D02*
X4241491Y-13348103D01*
X4241491Y-13348103D02*
X4222444Y-13357627D01*
X4508158Y-13367150D02*
X4508158Y-13500484D01*
X4460539Y-13290960D02*
X4412920Y-13433817D01*
X4412920Y-13433817D02*
X4536729Y-13433817D01*
X4612920Y-13500484D02*
X4612920Y-13367150D01*
X4612920Y-13386198D02*
X4622444Y-13376674D01*
X4622444Y-13376674D02*
X4641491Y-13367150D01*
X4641491Y-13367150D02*
X4670063Y-13367150D01*
X4670063Y-13367150D02*
X4689110Y-13376674D01*
X4689110Y-13376674D02*
X4698634Y-13395722D01*
X4698634Y-13395722D02*
X4698634Y-13500484D01*
X4698634Y-13395722D02*
X4708158Y-13376674D01*
X4708158Y-13376674D02*
X4727205Y-13367150D01*
X4727205Y-13367150D02*
X4755777Y-13367150D01*
X4755777Y-13367150D02*
X4774825Y-13376674D01*
X4774825Y-13376674D02*
X4784348Y-13395722D01*
X4784348Y-13395722D02*
X4784348Y-13500484D01*
X4879586Y-13500484D02*
X4879586Y-13367150D01*
X4879586Y-13386198D02*
X4889110Y-13376674D01*
X4889110Y-13376674D02*
X4908158Y-13367150D01*
X4908158Y-13367150D02*
X4936729Y-13367150D01*
X4936729Y-13367150D02*
X4955777Y-13376674D01*
X4955777Y-13376674D02*
X4965301Y-13395722D01*
X4965301Y-13395722D02*
X4965301Y-13500484D01*
X4965301Y-13395722D02*
X4974825Y-13376674D01*
X4974825Y-13376674D02*
X4993872Y-13367150D01*
X4993872Y-13367150D02*
X5022444Y-13367150D01*
X5022444Y-13367150D02*
X5041491Y-13376674D01*
X5041491Y-13376674D02*
X5051015Y-13395722D01*
X5051015Y-13395722D02*
X5051015Y-13500484D01*
X5441491Y-13290960D02*
X5270063Y-13548103D01*
X5698634Y-13300484D02*
X5717682Y-13300484D01*
X5717682Y-13300484D02*
X5736729Y-13310008D01*
X5736729Y-13310008D02*
X5746253Y-13319531D01*
X5746253Y-13319531D02*
X5755777Y-13338579D01*
X5755777Y-13338579D02*
X5765301Y-13376674D01*
X5765301Y-13376674D02*
X5765301Y-13424293D01*
X5765301Y-13424293D02*
X5755777Y-13462388D01*
X5755777Y-13462388D02*
X5746253Y-13481436D01*
X5746253Y-13481436D02*
X5736729Y-13490960D01*
X5736729Y-13490960D02*
X5717682Y-13500484D01*
X5717682Y-13500484D02*
X5698634Y-13500484D01*
X5698634Y-13500484D02*
X5679586Y-13490960D01*
X5679586Y-13490960D02*
X5670063Y-13481436D01*
X5670063Y-13481436D02*
X5660539Y-13462388D01*
X5660539Y-13462388D02*
X5651015Y-13424293D01*
X5651015Y-13424293D02*
X5651015Y-13376674D01*
X5651015Y-13376674D02*
X5660539Y-13338579D01*
X5660539Y-13338579D02*
X5670063Y-13319531D01*
X5670063Y-13319531D02*
X5679586Y-13310008D01*
X5679586Y-13310008D02*
X5698634Y-13300484D01*
X5851015Y-13481436D02*
X5860539Y-13490960D01*
X5860539Y-13490960D02*
X5851015Y-13500484D01*
X5851015Y-13500484D02*
X5841491Y-13490960D01*
X5841491Y-13490960D02*
X5851015Y-13481436D01*
X5851015Y-13481436D02*
X5851015Y-13500484D01*
X5984348Y-13300484D02*
X6003396Y-13300484D01*
X6003396Y-13300484D02*
X6022444Y-13310008D01*
X6022444Y-13310008D02*
X6031967Y-13319531D01*
X6031967Y-13319531D02*
X6041491Y-13338579D01*
X6041491Y-13338579D02*
X6051015Y-13376674D01*
X6051015Y-13376674D02*
X6051015Y-13424293D01*
X6051015Y-13424293D02*
X6041491Y-13462388D01*
X6041491Y-13462388D02*
X6031967Y-13481436D01*
X6031967Y-13481436D02*
X6022444Y-13490960D01*
X6022444Y-13490960D02*
X6003396Y-13500484D01*
X6003396Y-13500484D02*
X5984348Y-13500484D01*
X5984348Y-13500484D02*
X5965301Y-13490960D01*
X5965301Y-13490960D02*
X5955777Y-13481436D01*
X5955777Y-13481436D02*
X5946253Y-13462388D01*
X5946253Y-13462388D02*
X5936729Y-13424293D01*
X5936729Y-13424293D02*
X5936729Y-13376674D01*
X5936729Y-13376674D02*
X5946253Y-13338579D01*
X5946253Y-13338579D02*
X5955777Y-13319531D01*
X5955777Y-13319531D02*
X5965301Y-13310008D01*
X5965301Y-13310008D02*
X5984348Y-13300484D01*
X6127206Y-13319531D02*
X6136729Y-13310008D01*
X6136729Y-13310008D02*
X6155777Y-13300484D01*
X6155777Y-13300484D02*
X6203396Y-13300484D01*
X6203396Y-13300484D02*
X6222444Y-13310008D01*
X6222444Y-13310008D02*
X6231967Y-13319531D01*
X6231967Y-13319531D02*
X6241491Y-13338579D01*
X6241491Y-13338579D02*
X6241491Y-13357627D01*
X6241491Y-13357627D02*
X6231967Y-13386198D01*
X6231967Y-13386198D02*
X6117682Y-13500484D01*
X6117682Y-13500484D02*
X6241491Y-13500484D01*
X6355777Y-13386198D02*
X6336729Y-13376674D01*
X6336729Y-13376674D02*
X6327206Y-13367150D01*
X6327206Y-13367150D02*
X6317682Y-13348103D01*
X6317682Y-13348103D02*
X6317682Y-13338579D01*
X6317682Y-13338579D02*
X6327206Y-13319531D01*
X6327206Y-13319531D02*
X6336729Y-13310008D01*
X6336729Y-13310008D02*
X6355777Y-13300484D01*
X6355777Y-13300484D02*
X6393872Y-13300484D01*
X6393872Y-13300484D02*
X6412920Y-13310008D01*
X6412920Y-13310008D02*
X6422444Y-13319531D01*
X6422444Y-13319531D02*
X6431967Y-13338579D01*
X6431967Y-13338579D02*
X6431967Y-13348103D01*
X6431967Y-13348103D02*
X6422444Y-13367150D01*
X6422444Y-13367150D02*
X6412920Y-13376674D01*
X6412920Y-13376674D02*
X6393872Y-13386198D01*
X6393872Y-13386198D02*
X6355777Y-13386198D01*
X6355777Y-13386198D02*
X6336729Y-13395722D01*
X6336729Y-13395722D02*
X6327206Y-13405246D01*
X6327206Y-13405246D02*
X6317682Y-13424293D01*
X6317682Y-13424293D02*
X6317682Y-13462388D01*
X6317682Y-13462388D02*
X6327206Y-13481436D01*
X6327206Y-13481436D02*
X6336729Y-13490960D01*
X6336729Y-13490960D02*
X6355777Y-13500484D01*
X6355777Y-13500484D02*
X6393872Y-13500484D01*
X6393872Y-13500484D02*
X6412920Y-13490960D01*
X6412920Y-13490960D02*
X6422444Y-13481436D01*
X6422444Y-13481436D02*
X6431967Y-13462388D01*
X6431967Y-13462388D02*
X6431967Y-13424293D01*
X6431967Y-13424293D02*
X6422444Y-13405246D01*
X6422444Y-13405246D02*
X6412920Y-13395722D01*
X6412920Y-13395722D02*
X6393872Y-13386198D01*
X6622444Y-13500484D02*
X6508158Y-13500484D01*
X6565301Y-13500484D02*
X6565301Y-13300484D01*
X6565301Y-13300484D02*
X6546253Y-13329055D01*
X6546253Y-13329055D02*
X6527206Y-13348103D01*
X6527206Y-13348103D02*
X6508158Y-13357627D01*
X6698634Y-13300484D02*
X6698634Y-13338579D01*
X6774825Y-13300484D02*
X6774825Y-13338579D01*
X7070063Y-13576674D02*
X7060539Y-13567150D01*
X7060539Y-13567150D02*
X7041491Y-13538579D01*
X7041491Y-13538579D02*
X7031968Y-13519531D01*
X7031968Y-13519531D02*
X7022444Y-13490960D01*
X7022444Y-13490960D02*
X7012920Y-13443341D01*
X7012920Y-13443341D02*
X7012920Y-13405246D01*
X7012920Y-13405246D02*
X7022444Y-13357627D01*
X7022444Y-13357627D02*
X7031968Y-13329055D01*
X7031968Y-13329055D02*
X7041491Y-13310008D01*
X7041491Y-13310008D02*
X7060539Y-13281436D01*
X7060539Y-13281436D02*
X7070063Y-13271912D01*
X7251015Y-13500484D02*
X7136729Y-13500484D01*
X7193872Y-13500484D02*
X7193872Y-13300484D01*
X7193872Y-13300484D02*
X7174825Y-13329055D01*
X7174825Y-13329055D02*
X7155777Y-13348103D01*
X7155777Y-13348103D02*
X7136729Y-13357627D01*
X7365301Y-13386198D02*
X7346253Y-13376674D01*
X7346253Y-13376674D02*
X7336729Y-13367150D01*
X7336729Y-13367150D02*
X7327206Y-13348103D01*
X7327206Y-13348103D02*
X7327206Y-13338579D01*
X7327206Y-13338579D02*
X7336729Y-13319531D01*
X7336729Y-13319531D02*
X7346253Y-13310008D01*
X7346253Y-13310008D02*
X7365301Y-13300484D01*
X7365301Y-13300484D02*
X7403396Y-13300484D01*
X7403396Y-13300484D02*
X7422444Y-13310008D01*
X7422444Y-13310008D02*
X7431968Y-13319531D01*
X7431968Y-13319531D02*
X7441491Y-13338579D01*
X7441491Y-13338579D02*
X7441491Y-13348103D01*
X7441491Y-13348103D02*
X7431968Y-13367150D01*
X7431968Y-13367150D02*
X7422444Y-13376674D01*
X7422444Y-13376674D02*
X7403396Y-13386198D01*
X7403396Y-13386198D02*
X7365301Y-13386198D01*
X7365301Y-13386198D02*
X7346253Y-13395722D01*
X7346253Y-13395722D02*
X7336729Y-13405246D01*
X7336729Y-13405246D02*
X7327206Y-13424293D01*
X7327206Y-13424293D02*
X7327206Y-13462388D01*
X7327206Y-13462388D02*
X7336729Y-13481436D01*
X7336729Y-13481436D02*
X7346253Y-13490960D01*
X7346253Y-13490960D02*
X7365301Y-13500484D01*
X7365301Y-13500484D02*
X7403396Y-13500484D01*
X7403396Y-13500484D02*
X7422444Y-13490960D01*
X7422444Y-13490960D02*
X7431968Y-13481436D01*
X7431968Y-13481436D02*
X7441491Y-13462388D01*
X7441491Y-13462388D02*
X7441491Y-13424293D01*
X7441491Y-13424293D02*
X7431968Y-13405246D01*
X7431968Y-13405246D02*
X7422444Y-13395722D01*
X7422444Y-13395722D02*
X7403396Y-13386198D01*
X7679587Y-13500484D02*
X7679587Y-13300484D01*
X7765301Y-13500484D02*
X7765301Y-13395722D01*
X7765301Y-13395722D02*
X7755777Y-13376674D01*
X7755777Y-13376674D02*
X7736730Y-13367150D01*
X7736730Y-13367150D02*
X7708158Y-13367150D01*
X7708158Y-13367150D02*
X7689110Y-13376674D01*
X7689110Y-13376674D02*
X7679587Y-13386198D01*
X7889110Y-13500484D02*
X7870063Y-13490960D01*
X7870063Y-13490960D02*
X7860539Y-13481436D01*
X7860539Y-13481436D02*
X7851015Y-13462388D01*
X7851015Y-13462388D02*
X7851015Y-13405246D01*
X7851015Y-13405246D02*
X7860539Y-13386198D01*
X7860539Y-13386198D02*
X7870063Y-13376674D01*
X7870063Y-13376674D02*
X7889110Y-13367150D01*
X7889110Y-13367150D02*
X7917682Y-13367150D01*
X7917682Y-13367150D02*
X7936730Y-13376674D01*
X7936730Y-13376674D02*
X7946253Y-13386198D01*
X7946253Y-13386198D02*
X7955777Y-13405246D01*
X7955777Y-13405246D02*
X7955777Y-13462388D01*
X7955777Y-13462388D02*
X7946253Y-13481436D01*
X7946253Y-13481436D02*
X7936730Y-13490960D01*
X7936730Y-13490960D02*
X7917682Y-13500484D01*
X7917682Y-13500484D02*
X7889110Y-13500484D01*
X8070063Y-13500484D02*
X8051015Y-13490960D01*
X8051015Y-13490960D02*
X8041491Y-13471912D01*
X8041491Y-13471912D02*
X8041491Y-13300484D01*
X8222444Y-13490960D02*
X8203396Y-13500484D01*
X8203396Y-13500484D02*
X8165301Y-13500484D01*
X8165301Y-13500484D02*
X8146253Y-13490960D01*
X8146253Y-13490960D02*
X8136730Y-13471912D01*
X8136730Y-13471912D02*
X8136730Y-13395722D01*
X8136730Y-13395722D02*
X8146253Y-13376674D01*
X8146253Y-13376674D02*
X8165301Y-13367150D01*
X8165301Y-13367150D02*
X8203396Y-13367150D01*
X8203396Y-13367150D02*
X8222444Y-13376674D01*
X8222444Y-13376674D02*
X8231968Y-13395722D01*
X8231968Y-13395722D02*
X8231968Y-13414769D01*
X8231968Y-13414769D02*
X8136730Y-13433817D01*
X8308158Y-13490960D02*
X8327206Y-13500484D01*
X8327206Y-13500484D02*
X8365301Y-13500484D01*
X8365301Y-13500484D02*
X8384349Y-13490960D01*
X8384349Y-13490960D02*
X8393873Y-13471912D01*
X8393873Y-13471912D02*
X8393873Y-13462388D01*
X8393873Y-13462388D02*
X8384349Y-13443341D01*
X8384349Y-13443341D02*
X8365301Y-13433817D01*
X8365301Y-13433817D02*
X8336730Y-13433817D01*
X8336730Y-13433817D02*
X8317682Y-13424293D01*
X8317682Y-13424293D02*
X8308158Y-13405246D01*
X8308158Y-13405246D02*
X8308158Y-13395722D01*
X8308158Y-13395722D02*
X8317682Y-13376674D01*
X8317682Y-13376674D02*
X8336730Y-13367150D01*
X8336730Y-13367150D02*
X8365301Y-13367150D01*
X8365301Y-13367150D02*
X8384349Y-13376674D01*
X8460539Y-13576674D02*
X8470063Y-13567150D01*
X8470063Y-13567150D02*
X8489111Y-13538579D01*
X8489111Y-13538579D02*
X8498634Y-13519531D01*
X8498634Y-13519531D02*
X8508158Y-13490960D01*
X8508158Y-13490960D02*
X8517682Y-13443341D01*
X8517682Y-13443341D02*
X8517682Y-13405246D01*
X8517682Y-13405246D02*
X8508158Y-13357627D01*
X8508158Y-13357627D02*
X8498634Y-13329055D01*
X8498634Y-13329055D02*
X8489111Y-13310008D01*
X8489111Y-13310008D02*
X8470063Y-13281436D01*
X8470063Y-13281436D02*
X8460539Y-13271912D01*
D10*
X3457500Y-13635500D02*
X3457500Y-13710500D01*
X3420000Y-13673000D02*
X3495000Y-13673000D01*
D11*
X3793872Y-13564484D02*
X3812920Y-13564484D01*
X3812920Y-13564484D02*
X3831967Y-13574008D01*
X3831967Y-13574008D02*
X3841491Y-13583531D01*
X3841491Y-13583531D02*
X3851015Y-13602579D01*
X3851015Y-13602579D02*
X3860539Y-13640674D01*
X3860539Y-13640674D02*
X3860539Y-13688293D01*
X3860539Y-13688293D02*
X3851015Y-13726388D01*
X3851015Y-13726388D02*
X3841491Y-13745436D01*
X3841491Y-13745436D02*
X3831967Y-13754960D01*
X3831967Y-13754960D02*
X3812920Y-13764484D01*
X3812920Y-13764484D02*
X3793872Y-13764484D01*
X3793872Y-13764484D02*
X3774824Y-13754960D01*
X3774824Y-13754960D02*
X3765301Y-13745436D01*
X3765301Y-13745436D02*
X3755777Y-13726388D01*
X3755777Y-13726388D02*
X3746253Y-13688293D01*
X3746253Y-13688293D02*
X3746253Y-13640674D01*
X3746253Y-13640674D02*
X3755777Y-13602579D01*
X3755777Y-13602579D02*
X3765301Y-13583531D01*
X3765301Y-13583531D02*
X3774824Y-13574008D01*
X3774824Y-13574008D02*
X3793872Y-13564484D01*
X3946253Y-13745436D02*
X3955777Y-13754960D01*
X3955777Y-13754960D02*
X3946253Y-13764484D01*
X3946253Y-13764484D02*
X3936729Y-13754960D01*
X3936729Y-13754960D02*
X3946253Y-13745436D01*
X3946253Y-13745436D02*
X3946253Y-13764484D01*
X4022443Y-13564484D02*
X4155777Y-13564484D01*
X4155777Y-13564484D02*
X4070062Y-13764484D01*
X4327205Y-13564484D02*
X4231967Y-13564484D01*
X4231967Y-13564484D02*
X4222444Y-13659722D01*
X4222444Y-13659722D02*
X4231967Y-13650198D01*
X4231967Y-13650198D02*
X4251015Y-13640674D01*
X4251015Y-13640674D02*
X4298634Y-13640674D01*
X4298634Y-13640674D02*
X4317682Y-13650198D01*
X4317682Y-13650198D02*
X4327205Y-13659722D01*
X4327205Y-13659722D02*
X4336729Y-13678769D01*
X4336729Y-13678769D02*
X4336729Y-13726388D01*
X4336729Y-13726388D02*
X4327205Y-13745436D01*
X4327205Y-13745436D02*
X4317682Y-13754960D01*
X4317682Y-13754960D02*
X4298634Y-13764484D01*
X4298634Y-13764484D02*
X4251015Y-13764484D01*
X4251015Y-13764484D02*
X4231967Y-13754960D01*
X4231967Y-13754960D02*
X4222444Y-13745436D01*
X4460539Y-13564484D02*
X4479586Y-13564484D01*
X4479586Y-13564484D02*
X4498634Y-13574008D01*
X4498634Y-13574008D02*
X4508158Y-13583531D01*
X4508158Y-13583531D02*
X4517682Y-13602579D01*
X4517682Y-13602579D02*
X4527205Y-13640674D01*
X4527205Y-13640674D02*
X4527205Y-13688293D01*
X4527205Y-13688293D02*
X4517682Y-13726388D01*
X4517682Y-13726388D02*
X4508158Y-13745436D01*
X4508158Y-13745436D02*
X4498634Y-13754960D01*
X4498634Y-13754960D02*
X4479586Y-13764484D01*
X4479586Y-13764484D02*
X4460539Y-13764484D01*
X4460539Y-13764484D02*
X4441491Y-13754960D01*
X4441491Y-13754960D02*
X4431967Y-13745436D01*
X4431967Y-13745436D02*
X4422444Y-13726388D01*
X4422444Y-13726388D02*
X4412920Y-13688293D01*
X4412920Y-13688293D02*
X4412920Y-13640674D01*
X4412920Y-13640674D02*
X4422444Y-13602579D01*
X4422444Y-13602579D02*
X4431967Y-13583531D01*
X4431967Y-13583531D02*
X4441491Y-13574008D01*
X4441491Y-13574008D02*
X4460539Y-13564484D01*
X4612920Y-13764484D02*
X4612920Y-13631150D01*
X4612920Y-13650198D02*
X4622444Y-13640674D01*
X4622444Y-13640674D02*
X4641491Y-13631150D01*
X4641491Y-13631150D02*
X4670063Y-13631150D01*
X4670063Y-13631150D02*
X4689110Y-13640674D01*
X4689110Y-13640674D02*
X4698634Y-13659722D01*
X4698634Y-13659722D02*
X4698634Y-13764484D01*
X4698634Y-13659722D02*
X4708158Y-13640674D01*
X4708158Y-13640674D02*
X4727205Y-13631150D01*
X4727205Y-13631150D02*
X4755777Y-13631150D01*
X4755777Y-13631150D02*
X4774825Y-13640674D01*
X4774825Y-13640674D02*
X4784348Y-13659722D01*
X4784348Y-13659722D02*
X4784348Y-13764484D01*
X4879586Y-13764484D02*
X4879586Y-13631150D01*
X4879586Y-13650198D02*
X4889110Y-13640674D01*
X4889110Y-13640674D02*
X4908158Y-13631150D01*
X4908158Y-13631150D02*
X4936729Y-13631150D01*
X4936729Y-13631150D02*
X4955777Y-13640674D01*
X4955777Y-13640674D02*
X4965301Y-13659722D01*
X4965301Y-13659722D02*
X4965301Y-13764484D01*
X4965301Y-13659722D02*
X4974825Y-13640674D01*
X4974825Y-13640674D02*
X4993872Y-13631150D01*
X4993872Y-13631150D02*
X5022444Y-13631150D01*
X5022444Y-13631150D02*
X5041491Y-13640674D01*
X5041491Y-13640674D02*
X5051015Y-13659722D01*
X5051015Y-13659722D02*
X5051015Y-13764484D01*
X5441491Y-13554960D02*
X5270063Y-13812103D01*
X5698634Y-13564484D02*
X5717682Y-13564484D01*
X5717682Y-13564484D02*
X5736729Y-13574008D01*
X5736729Y-13574008D02*
X5746253Y-13583531D01*
X5746253Y-13583531D02*
X5755777Y-13602579D01*
X5755777Y-13602579D02*
X5765301Y-13640674D01*
X5765301Y-13640674D02*
X5765301Y-13688293D01*
X5765301Y-13688293D02*
X5755777Y-13726388D01*
X5755777Y-13726388D02*
X5746253Y-13745436D01*
X5746253Y-13745436D02*
X5736729Y-13754960D01*
X5736729Y-13754960D02*
X5717682Y-13764484D01*
X5717682Y-13764484D02*
X5698634Y-13764484D01*
X5698634Y-13764484D02*
X5679586Y-13754960D01*
X5679586Y-13754960D02*
X5670063Y-13745436D01*
X5670063Y-13745436D02*
X5660539Y-13726388D01*
X5660539Y-13726388D02*
X5651015Y-13688293D01*
X5651015Y-13688293D02*
X5651015Y-13640674D01*
X5651015Y-13640674D02*
X5660539Y-13602579D01*
X5660539Y-13602579D02*
X5670063Y-13583531D01*
X5670063Y-13583531D02*
X5679586Y-13574008D01*
X5679586Y-13574008D02*
X5698634Y-13564484D01*
X5851015Y-13745436D02*
X5860539Y-13754960D01*
X5860539Y-13754960D02*
X5851015Y-13764484D01*
X5851015Y-13764484D02*
X5841491Y-13754960D01*
X5841491Y-13754960D02*
X5851015Y-13745436D01*
X5851015Y-13745436D02*
X5851015Y-13764484D01*
X5984348Y-13564484D02*
X6003396Y-13564484D01*
X6003396Y-13564484D02*
X6022444Y-13574008D01*
X6022444Y-13574008D02*
X6031967Y-13583531D01*
X6031967Y-13583531D02*
X6041491Y-13602579D01*
X6041491Y-13602579D02*
X6051015Y-13640674D01*
X6051015Y-13640674D02*
X6051015Y-13688293D01*
X6051015Y-13688293D02*
X6041491Y-13726388D01*
X6041491Y-13726388D02*
X6031967Y-13745436D01*
X6031967Y-13745436D02*
X6022444Y-13754960D01*
X6022444Y-13754960D02*
X6003396Y-13764484D01*
X6003396Y-13764484D02*
X5984348Y-13764484D01*
X5984348Y-13764484D02*
X5965301Y-13754960D01*
X5965301Y-13754960D02*
X5955777Y-13745436D01*
X5955777Y-13745436D02*
X5946253Y-13726388D01*
X5946253Y-13726388D02*
X5936729Y-13688293D01*
X5936729Y-13688293D02*
X5936729Y-13640674D01*
X5936729Y-13640674D02*
X5946253Y-13602579D01*
X5946253Y-13602579D02*
X5955777Y-13583531D01*
X5955777Y-13583531D02*
X5965301Y-13574008D01*
X5965301Y-13574008D02*
X5984348Y-13564484D01*
X6127206Y-13583531D02*
X6136729Y-13574008D01*
X6136729Y-13574008D02*
X6155777Y-13564484D01*
X6155777Y-13564484D02*
X6203396Y-13564484D01*
X6203396Y-13564484D02*
X6222444Y-13574008D01*
X6222444Y-13574008D02*
X6231967Y-13583531D01*
X6231967Y-13583531D02*
X6241491Y-13602579D01*
X6241491Y-13602579D02*
X6241491Y-13621627D01*
X6241491Y-13621627D02*
X6231967Y-13650198D01*
X6231967Y-13650198D02*
X6117682Y-13764484D01*
X6117682Y-13764484D02*
X6241491Y-13764484D01*
X6336729Y-13764484D02*
X6374825Y-13764484D01*
X6374825Y-13764484D02*
X6393872Y-13754960D01*
X6393872Y-13754960D02*
X6403396Y-13745436D01*
X6403396Y-13745436D02*
X6422444Y-13716865D01*
X6422444Y-13716865D02*
X6431967Y-13678769D01*
X6431967Y-13678769D02*
X6431967Y-13602579D01*
X6431967Y-13602579D02*
X6422444Y-13583531D01*
X6422444Y-13583531D02*
X6412920Y-13574008D01*
X6412920Y-13574008D02*
X6393872Y-13564484D01*
X6393872Y-13564484D02*
X6355777Y-13564484D01*
X6355777Y-13564484D02*
X6336729Y-13574008D01*
X6336729Y-13574008D02*
X6327206Y-13583531D01*
X6327206Y-13583531D02*
X6317682Y-13602579D01*
X6317682Y-13602579D02*
X6317682Y-13650198D01*
X6317682Y-13650198D02*
X6327206Y-13669246D01*
X6327206Y-13669246D02*
X6336729Y-13678769D01*
X6336729Y-13678769D02*
X6355777Y-13688293D01*
X6355777Y-13688293D02*
X6393872Y-13688293D01*
X6393872Y-13688293D02*
X6412920Y-13678769D01*
X6412920Y-13678769D02*
X6422444Y-13669246D01*
X6422444Y-13669246D02*
X6431967Y-13650198D01*
X6612920Y-13564484D02*
X6517682Y-13564484D01*
X6517682Y-13564484D02*
X6508158Y-13659722D01*
X6508158Y-13659722D02*
X6517682Y-13650198D01*
X6517682Y-13650198D02*
X6536729Y-13640674D01*
X6536729Y-13640674D02*
X6584348Y-13640674D01*
X6584348Y-13640674D02*
X6603396Y-13650198D01*
X6603396Y-13650198D02*
X6612920Y-13659722D01*
X6612920Y-13659722D02*
X6622444Y-13678769D01*
X6622444Y-13678769D02*
X6622444Y-13726388D01*
X6622444Y-13726388D02*
X6612920Y-13745436D01*
X6612920Y-13745436D02*
X6603396Y-13754960D01*
X6603396Y-13754960D02*
X6584348Y-13764484D01*
X6584348Y-13764484D02*
X6536729Y-13764484D01*
X6536729Y-13764484D02*
X6517682Y-13754960D01*
X6517682Y-13754960D02*
X6508158Y-13745436D01*
X6698634Y-13564484D02*
X6698634Y-13602579D01*
X6774825Y-13564484D02*
X6774825Y-13602579D01*
X7070063Y-13840674D02*
X7060539Y-13831150D01*
X7060539Y-13831150D02*
X7041491Y-13802579D01*
X7041491Y-13802579D02*
X7031968Y-13783531D01*
X7031968Y-13783531D02*
X7022444Y-13754960D01*
X7022444Y-13754960D02*
X7012920Y-13707341D01*
X7012920Y-13707341D02*
X7012920Y-13669246D01*
X7012920Y-13669246D02*
X7022444Y-13621627D01*
X7022444Y-13621627D02*
X7031968Y-13593055D01*
X7031968Y-13593055D02*
X7041491Y-13574008D01*
X7041491Y-13574008D02*
X7060539Y-13545436D01*
X7060539Y-13545436D02*
X7070063Y-13535912D01*
X7136729Y-13583531D02*
X7146253Y-13574008D01*
X7146253Y-13574008D02*
X7165301Y-13564484D01*
X7165301Y-13564484D02*
X7212920Y-13564484D01*
X7212920Y-13564484D02*
X7231968Y-13574008D01*
X7231968Y-13574008D02*
X7241491Y-13583531D01*
X7241491Y-13583531D02*
X7251015Y-13602579D01*
X7251015Y-13602579D02*
X7251015Y-13621627D01*
X7251015Y-13621627D02*
X7241491Y-13650198D01*
X7241491Y-13650198D02*
X7127206Y-13764484D01*
X7127206Y-13764484D02*
X7251015Y-13764484D01*
X7365301Y-13650198D02*
X7346253Y-13640674D01*
X7346253Y-13640674D02*
X7336729Y-13631150D01*
X7336729Y-13631150D02*
X7327206Y-13612103D01*
X7327206Y-13612103D02*
X7327206Y-13602579D01*
X7327206Y-13602579D02*
X7336729Y-13583531D01*
X7336729Y-13583531D02*
X7346253Y-13574008D01*
X7346253Y-13574008D02*
X7365301Y-13564484D01*
X7365301Y-13564484D02*
X7403396Y-13564484D01*
X7403396Y-13564484D02*
X7422444Y-13574008D01*
X7422444Y-13574008D02*
X7431968Y-13583531D01*
X7431968Y-13583531D02*
X7441491Y-13602579D01*
X7441491Y-13602579D02*
X7441491Y-13612103D01*
X7441491Y-13612103D02*
X7431968Y-13631150D01*
X7431968Y-13631150D02*
X7422444Y-13640674D01*
X7422444Y-13640674D02*
X7403396Y-13650198D01*
X7403396Y-13650198D02*
X7365301Y-13650198D01*
X7365301Y-13650198D02*
X7346253Y-13659722D01*
X7346253Y-13659722D02*
X7336729Y-13669246D01*
X7336729Y-13669246D02*
X7327206Y-13688293D01*
X7327206Y-13688293D02*
X7327206Y-13726388D01*
X7327206Y-13726388D02*
X7336729Y-13745436D01*
X7336729Y-13745436D02*
X7346253Y-13754960D01*
X7346253Y-13754960D02*
X7365301Y-13764484D01*
X7365301Y-13764484D02*
X7403396Y-13764484D01*
X7403396Y-13764484D02*
X7422444Y-13754960D01*
X7422444Y-13754960D02*
X7431968Y-13745436D01*
X7431968Y-13745436D02*
X7441491Y-13726388D01*
X7441491Y-13726388D02*
X7441491Y-13688293D01*
X7441491Y-13688293D02*
X7431968Y-13669246D01*
X7431968Y-13669246D02*
X7422444Y-13659722D01*
X7422444Y-13659722D02*
X7403396Y-13650198D01*
X7679587Y-13764484D02*
X7679587Y-13564484D01*
X7765301Y-13764484D02*
X7765301Y-13659722D01*
X7765301Y-13659722D02*
X7755777Y-13640674D01*
X7755777Y-13640674D02*
X7736730Y-13631150D01*
X7736730Y-13631150D02*
X7708158Y-13631150D01*
X7708158Y-13631150D02*
X7689110Y-13640674D01*
X7689110Y-13640674D02*
X7679587Y-13650198D01*
X7889110Y-13764484D02*
X7870063Y-13754960D01*
X7870063Y-13754960D02*
X7860539Y-13745436D01*
X7860539Y-13745436D02*
X7851015Y-13726388D01*
X7851015Y-13726388D02*
X7851015Y-13669246D01*
X7851015Y-13669246D02*
X7860539Y-13650198D01*
X7860539Y-13650198D02*
X7870063Y-13640674D01*
X7870063Y-13640674D02*
X7889110Y-13631150D01*
X7889110Y-13631150D02*
X7917682Y-13631150D01*
X7917682Y-13631150D02*
X7936730Y-13640674D01*
X7936730Y-13640674D02*
X7946253Y-13650198D01*
X7946253Y-13650198D02*
X7955777Y-13669246D01*
X7955777Y-13669246D02*
X7955777Y-13726388D01*
X7955777Y-13726388D02*
X7946253Y-13745436D01*
X7946253Y-13745436D02*
X7936730Y-13754960D01*
X7936730Y-13754960D02*
X7917682Y-13764484D01*
X7917682Y-13764484D02*
X7889110Y-13764484D01*
X8070063Y-13764484D02*
X8051015Y-13754960D01*
X8051015Y-13754960D02*
X8041491Y-13735912D01*
X8041491Y-13735912D02*
X8041491Y-13564484D01*
X8222444Y-13754960D02*
X8203396Y-13764484D01*
X8203396Y-13764484D02*
X8165301Y-13764484D01*
X8165301Y-13764484D02*
X8146253Y-13754960D01*
X8146253Y-13754960D02*
X8136730Y-13735912D01*
X8136730Y-13735912D02*
X8136730Y-13659722D01*
X8136730Y-13659722D02*
X8146253Y-13640674D01*
X8146253Y-13640674D02*
X8165301Y-13631150D01*
X8165301Y-13631150D02*
X8203396Y-13631150D01*
X8203396Y-13631150D02*
X8222444Y-13640674D01*
X8222444Y-13640674D02*
X8231968Y-13659722D01*
X8231968Y-13659722D02*
X8231968Y-13678769D01*
X8231968Y-13678769D02*
X8136730Y-13697817D01*
X8308158Y-13754960D02*
X8327206Y-13764484D01*
X8327206Y-13764484D02*
X8365301Y-13764484D01*
X8365301Y-13764484D02*
X8384349Y-13754960D01*
X8384349Y-13754960D02*
X8393873Y-13735912D01*
X8393873Y-13735912D02*
X8393873Y-13726388D01*
X8393873Y-13726388D02*
X8384349Y-13707341D01*
X8384349Y-13707341D02*
X8365301Y-13697817D01*
X8365301Y-13697817D02*
X8336730Y-13697817D01*
X8336730Y-13697817D02*
X8317682Y-13688293D01*
X8317682Y-13688293D02*
X8308158Y-13669246D01*
X8308158Y-13669246D02*
X8308158Y-13659722D01*
X8308158Y-13659722D02*
X8317682Y-13640674D01*
X8317682Y-13640674D02*
X8336730Y-13631150D01*
X8336730Y-13631150D02*
X8365301Y-13631150D01*
X8365301Y-13631150D02*
X8384349Y-13640674D01*
X8460539Y-13840674D02*
X8470063Y-13831150D01*
X8470063Y-13831150D02*
X8489111Y-13802579D01*
X8489111Y-13802579D02*
X8498634Y-13783531D01*
X8498634Y-13783531D02*
X8508158Y-13754960D01*
X8508158Y-13754960D02*
X8517682Y-13707341D01*
X8517682Y-13707341D02*
X8517682Y-13669246D01*
X8517682Y-13669246D02*
X8508158Y-13621627D01*
X8508158Y-13621627D02*
X8498634Y-13593055D01*
X8498634Y-13593055D02*
X8489111Y-13574008D01*
X8489111Y-13574008D02*
X8470063Y-13545436D01*
X8470063Y-13545436D02*
X8460539Y-13535912D01*
D10*
X3480356Y-13972356D02*
X3480356Y-13901644D01*
X3409644Y-13901644D01*
X3409644Y-13972356D01*
X3480356Y-13972356D01*
D11*
X3860539Y-14028484D02*
X3746253Y-14028484D01*
X3803396Y-14028484D02*
X3803396Y-13828484D01*
X3803396Y-13828484D02*
X3784348Y-13857055D01*
X3784348Y-13857055D02*
X3765301Y-13876103D01*
X3765301Y-13876103D02*
X3746253Y-13885627D01*
X3946253Y-14009436D02*
X3955777Y-14018960D01*
X3955777Y-14018960D02*
X3946253Y-14028484D01*
X3946253Y-14028484D02*
X3936729Y-14018960D01*
X3936729Y-14018960D02*
X3946253Y-14009436D01*
X3946253Y-14009436D02*
X3946253Y-14028484D01*
X4079586Y-13828484D02*
X4098634Y-13828484D01*
X4098634Y-13828484D02*
X4117682Y-13838008D01*
X4117682Y-13838008D02*
X4127205Y-13847531D01*
X4127205Y-13847531D02*
X4136729Y-13866579D01*
X4136729Y-13866579D02*
X4146253Y-13904674D01*
X4146253Y-13904674D02*
X4146253Y-13952293D01*
X4146253Y-13952293D02*
X4136729Y-13990388D01*
X4136729Y-13990388D02*
X4127205Y-14009436D01*
X4127205Y-14009436D02*
X4117682Y-14018960D01*
X4117682Y-14018960D02*
X4098634Y-14028484D01*
X4098634Y-14028484D02*
X4079586Y-14028484D01*
X4079586Y-14028484D02*
X4060539Y-14018960D01*
X4060539Y-14018960D02*
X4051015Y-14009436D01*
X4051015Y-14009436D02*
X4041491Y-13990388D01*
X4041491Y-13990388D02*
X4031967Y-13952293D01*
X4031967Y-13952293D02*
X4031967Y-13904674D01*
X4031967Y-13904674D02*
X4041491Y-13866579D01*
X4041491Y-13866579D02*
X4051015Y-13847531D01*
X4051015Y-13847531D02*
X4060539Y-13838008D01*
X4060539Y-13838008D02*
X4079586Y-13828484D01*
X4270063Y-13828484D02*
X4289110Y-13828484D01*
X4289110Y-13828484D02*
X4308158Y-13838008D01*
X4308158Y-13838008D02*
X4317682Y-13847531D01*
X4317682Y-13847531D02*
X4327205Y-13866579D01*
X4327205Y-13866579D02*
X4336729Y-13904674D01*
X4336729Y-13904674D02*
X4336729Y-13952293D01*
X4336729Y-13952293D02*
X4327205Y-13990388D01*
X4327205Y-13990388D02*
X4317682Y-14009436D01*
X4317682Y-14009436D02*
X4308158Y-14018960D01*
X4308158Y-14018960D02*
X4289110Y-14028484D01*
X4289110Y-14028484D02*
X4270063Y-14028484D01*
X4270063Y-14028484D02*
X4251015Y-14018960D01*
X4251015Y-14018960D02*
X4241491Y-14009436D01*
X4241491Y-14009436D02*
X4231967Y-13990388D01*
X4231967Y-13990388D02*
X4222444Y-13952293D01*
X4222444Y-13952293D02*
X4222444Y-13904674D01*
X4222444Y-13904674D02*
X4231967Y-13866579D01*
X4231967Y-13866579D02*
X4241491Y-13847531D01*
X4241491Y-13847531D02*
X4251015Y-13838008D01*
X4251015Y-13838008D02*
X4270063Y-13828484D01*
X4460539Y-13828484D02*
X4479586Y-13828484D01*
X4479586Y-13828484D02*
X4498634Y-13838008D01*
X4498634Y-13838008D02*
X4508158Y-13847531D01*
X4508158Y-13847531D02*
X4517682Y-13866579D01*
X4517682Y-13866579D02*
X4527205Y-13904674D01*
X4527205Y-13904674D02*
X4527205Y-13952293D01*
X4527205Y-13952293D02*
X4517682Y-13990388D01*
X4517682Y-13990388D02*
X4508158Y-14009436D01*
X4508158Y-14009436D02*
X4498634Y-14018960D01*
X4498634Y-14018960D02*
X4479586Y-14028484D01*
X4479586Y-14028484D02*
X4460539Y-14028484D01*
X4460539Y-14028484D02*
X4441491Y-14018960D01*
X4441491Y-14018960D02*
X4431967Y-14009436D01*
X4431967Y-14009436D02*
X4422444Y-13990388D01*
X4422444Y-13990388D02*
X4412920Y-13952293D01*
X4412920Y-13952293D02*
X4412920Y-13904674D01*
X4412920Y-13904674D02*
X4422444Y-13866579D01*
X4422444Y-13866579D02*
X4431967Y-13847531D01*
X4431967Y-13847531D02*
X4441491Y-13838008D01*
X4441491Y-13838008D02*
X4460539Y-13828484D01*
X4612920Y-14028484D02*
X4612920Y-13895150D01*
X4612920Y-13914198D02*
X4622444Y-13904674D01*
X4622444Y-13904674D02*
X4641491Y-13895150D01*
X4641491Y-13895150D02*
X4670063Y-13895150D01*
X4670063Y-13895150D02*
X4689110Y-13904674D01*
X4689110Y-13904674D02*
X4698634Y-13923722D01*
X4698634Y-13923722D02*
X4698634Y-14028484D01*
X4698634Y-13923722D02*
X4708158Y-13904674D01*
X4708158Y-13904674D02*
X4727205Y-13895150D01*
X4727205Y-13895150D02*
X4755777Y-13895150D01*
X4755777Y-13895150D02*
X4774825Y-13904674D01*
X4774825Y-13904674D02*
X4784348Y-13923722D01*
X4784348Y-13923722D02*
X4784348Y-14028484D01*
X4879586Y-14028484D02*
X4879586Y-13895150D01*
X4879586Y-13914198D02*
X4889110Y-13904674D01*
X4889110Y-13904674D02*
X4908158Y-13895150D01*
X4908158Y-13895150D02*
X4936729Y-13895150D01*
X4936729Y-13895150D02*
X4955777Y-13904674D01*
X4955777Y-13904674D02*
X4965301Y-13923722D01*
X4965301Y-13923722D02*
X4965301Y-14028484D01*
X4965301Y-13923722D02*
X4974825Y-13904674D01*
X4974825Y-13904674D02*
X4993872Y-13895150D01*
X4993872Y-13895150D02*
X5022444Y-13895150D01*
X5022444Y-13895150D02*
X5041491Y-13904674D01*
X5041491Y-13904674D02*
X5051015Y-13923722D01*
X5051015Y-13923722D02*
X5051015Y-14028484D01*
X5441491Y-13818960D02*
X5270063Y-14076103D01*
X5698634Y-13828484D02*
X5717682Y-13828484D01*
X5717682Y-13828484D02*
X5736729Y-13838008D01*
X5736729Y-13838008D02*
X5746253Y-13847531D01*
X5746253Y-13847531D02*
X5755777Y-13866579D01*
X5755777Y-13866579D02*
X5765301Y-13904674D01*
X5765301Y-13904674D02*
X5765301Y-13952293D01*
X5765301Y-13952293D02*
X5755777Y-13990388D01*
X5755777Y-13990388D02*
X5746253Y-14009436D01*
X5746253Y-14009436D02*
X5736729Y-14018960D01*
X5736729Y-14018960D02*
X5717682Y-14028484D01*
X5717682Y-14028484D02*
X5698634Y-14028484D01*
X5698634Y-14028484D02*
X5679586Y-14018960D01*
X5679586Y-14018960D02*
X5670063Y-14009436D01*
X5670063Y-14009436D02*
X5660539Y-13990388D01*
X5660539Y-13990388D02*
X5651015Y-13952293D01*
X5651015Y-13952293D02*
X5651015Y-13904674D01*
X5651015Y-13904674D02*
X5660539Y-13866579D01*
X5660539Y-13866579D02*
X5670063Y-13847531D01*
X5670063Y-13847531D02*
X5679586Y-13838008D01*
X5679586Y-13838008D02*
X5698634Y-13828484D01*
X5851015Y-14009436D02*
X5860539Y-14018960D01*
X5860539Y-14018960D02*
X5851015Y-14028484D01*
X5851015Y-14028484D02*
X5841491Y-14018960D01*
X5841491Y-14018960D02*
X5851015Y-14009436D01*
X5851015Y-14009436D02*
X5851015Y-14028484D01*
X5984348Y-13828484D02*
X6003396Y-13828484D01*
X6003396Y-13828484D02*
X6022444Y-13838008D01*
X6022444Y-13838008D02*
X6031967Y-13847531D01*
X6031967Y-13847531D02*
X6041491Y-13866579D01*
X6041491Y-13866579D02*
X6051015Y-13904674D01*
X6051015Y-13904674D02*
X6051015Y-13952293D01*
X6051015Y-13952293D02*
X6041491Y-13990388D01*
X6041491Y-13990388D02*
X6031967Y-14009436D01*
X6031967Y-14009436D02*
X6022444Y-14018960D01*
X6022444Y-14018960D02*
X6003396Y-14028484D01*
X6003396Y-14028484D02*
X5984348Y-14028484D01*
X5984348Y-14028484D02*
X5965301Y-14018960D01*
X5965301Y-14018960D02*
X5955777Y-14009436D01*
X5955777Y-14009436D02*
X5946253Y-13990388D01*
X5946253Y-13990388D02*
X5936729Y-13952293D01*
X5936729Y-13952293D02*
X5936729Y-13904674D01*
X5936729Y-13904674D02*
X5946253Y-13866579D01*
X5946253Y-13866579D02*
X5955777Y-13847531D01*
X5955777Y-13847531D02*
X5965301Y-13838008D01*
X5965301Y-13838008D02*
X5984348Y-13828484D01*
X6117682Y-13828484D02*
X6241491Y-13828484D01*
X6241491Y-13828484D02*
X6174825Y-13904674D01*
X6174825Y-13904674D02*
X6203396Y-13904674D01*
X6203396Y-13904674D02*
X6222444Y-13914198D01*
X6222444Y-13914198D02*
X6231967Y-13923722D01*
X6231967Y-13923722D02*
X6241491Y-13942769D01*
X6241491Y-13942769D02*
X6241491Y-13990388D01*
X6241491Y-13990388D02*
X6231967Y-14009436D01*
X6231967Y-14009436D02*
X6222444Y-14018960D01*
X6222444Y-14018960D02*
X6203396Y-14028484D01*
X6203396Y-14028484D02*
X6146253Y-14028484D01*
X6146253Y-14028484D02*
X6127206Y-14018960D01*
X6127206Y-14018960D02*
X6117682Y-14009436D01*
X6336729Y-14028484D02*
X6374825Y-14028484D01*
X6374825Y-14028484D02*
X6393872Y-14018960D01*
X6393872Y-14018960D02*
X6403396Y-14009436D01*
X6403396Y-14009436D02*
X6422444Y-13980865D01*
X6422444Y-13980865D02*
X6431967Y-13942769D01*
X6431967Y-13942769D02*
X6431967Y-13866579D01*
X6431967Y-13866579D02*
X6422444Y-13847531D01*
X6422444Y-13847531D02*
X6412920Y-13838008D01*
X6412920Y-13838008D02*
X6393872Y-13828484D01*
X6393872Y-13828484D02*
X6355777Y-13828484D01*
X6355777Y-13828484D02*
X6336729Y-13838008D01*
X6336729Y-13838008D02*
X6327206Y-13847531D01*
X6327206Y-13847531D02*
X6317682Y-13866579D01*
X6317682Y-13866579D02*
X6317682Y-13914198D01*
X6317682Y-13914198D02*
X6327206Y-13933246D01*
X6327206Y-13933246D02*
X6336729Y-13942769D01*
X6336729Y-13942769D02*
X6355777Y-13952293D01*
X6355777Y-13952293D02*
X6393872Y-13952293D01*
X6393872Y-13952293D02*
X6412920Y-13942769D01*
X6412920Y-13942769D02*
X6422444Y-13933246D01*
X6422444Y-13933246D02*
X6431967Y-13914198D01*
X6603396Y-13895150D02*
X6603396Y-14028484D01*
X6555777Y-13818960D02*
X6508158Y-13961817D01*
X6508158Y-13961817D02*
X6631967Y-13961817D01*
X6698634Y-13828484D02*
X6698634Y-13866579D01*
X6774825Y-13828484D02*
X6774825Y-13866579D01*
X7070063Y-14104674D02*
X7060539Y-14095150D01*
X7060539Y-14095150D02*
X7041491Y-14066579D01*
X7041491Y-14066579D02*
X7031968Y-14047531D01*
X7031968Y-14047531D02*
X7022444Y-14018960D01*
X7022444Y-14018960D02*
X7012920Y-13971341D01*
X7012920Y-13971341D02*
X7012920Y-13933246D01*
X7012920Y-13933246D02*
X7022444Y-13885627D01*
X7022444Y-13885627D02*
X7031968Y-13857055D01*
X7031968Y-13857055D02*
X7041491Y-13838008D01*
X7041491Y-13838008D02*
X7060539Y-13809436D01*
X7060539Y-13809436D02*
X7070063Y-13799912D01*
X7251015Y-14028484D02*
X7136729Y-14028484D01*
X7193872Y-14028484D02*
X7193872Y-13828484D01*
X7193872Y-13828484D02*
X7174825Y-13857055D01*
X7174825Y-13857055D02*
X7155777Y-13876103D01*
X7155777Y-13876103D02*
X7136729Y-13885627D01*
X7422444Y-13828484D02*
X7384348Y-13828484D01*
X7384348Y-13828484D02*
X7365301Y-13838008D01*
X7365301Y-13838008D02*
X7355777Y-13847531D01*
X7355777Y-13847531D02*
X7336729Y-13876103D01*
X7336729Y-13876103D02*
X7327206Y-13914198D01*
X7327206Y-13914198D02*
X7327206Y-13990388D01*
X7327206Y-13990388D02*
X7336729Y-14009436D01*
X7336729Y-14009436D02*
X7346253Y-14018960D01*
X7346253Y-14018960D02*
X7365301Y-14028484D01*
X7365301Y-14028484D02*
X7403396Y-14028484D01*
X7403396Y-14028484D02*
X7422444Y-14018960D01*
X7422444Y-14018960D02*
X7431968Y-14009436D01*
X7431968Y-14009436D02*
X7441491Y-13990388D01*
X7441491Y-13990388D02*
X7441491Y-13942769D01*
X7441491Y-13942769D02*
X7431968Y-13923722D01*
X7431968Y-13923722D02*
X7422444Y-13914198D01*
X7422444Y-13914198D02*
X7403396Y-13904674D01*
X7403396Y-13904674D02*
X7365301Y-13904674D01*
X7365301Y-13904674D02*
X7346253Y-13914198D01*
X7346253Y-13914198D02*
X7336729Y-13923722D01*
X7336729Y-13923722D02*
X7327206Y-13942769D01*
X7679587Y-14028484D02*
X7679587Y-13828484D01*
X7765301Y-14028484D02*
X7765301Y-13923722D01*
X7765301Y-13923722D02*
X7755777Y-13904674D01*
X7755777Y-13904674D02*
X7736730Y-13895150D01*
X7736730Y-13895150D02*
X7708158Y-13895150D01*
X7708158Y-13895150D02*
X7689110Y-13904674D01*
X7689110Y-13904674D02*
X7679587Y-13914198D01*
X7889110Y-14028484D02*
X7870063Y-14018960D01*
X7870063Y-14018960D02*
X7860539Y-14009436D01*
X7860539Y-14009436D02*
X7851015Y-13990388D01*
X7851015Y-13990388D02*
X7851015Y-13933246D01*
X7851015Y-13933246D02*
X7860539Y-13914198D01*
X7860539Y-13914198D02*
X7870063Y-13904674D01*
X7870063Y-13904674D02*
X7889110Y-13895150D01*
X7889110Y-13895150D02*
X7917682Y-13895150D01*
X7917682Y-13895150D02*
X7936730Y-13904674D01*
X7936730Y-13904674D02*
X7946253Y-13914198D01*
X7946253Y-13914198D02*
X7955777Y-13933246D01*
X7955777Y-13933246D02*
X7955777Y-13990388D01*
X7955777Y-13990388D02*
X7946253Y-14009436D01*
X7946253Y-14009436D02*
X7936730Y-14018960D01*
X7936730Y-14018960D02*
X7917682Y-14028484D01*
X7917682Y-14028484D02*
X7889110Y-14028484D01*
X8070063Y-14028484D02*
X8051015Y-14018960D01*
X8051015Y-14018960D02*
X8041491Y-13999912D01*
X8041491Y-13999912D02*
X8041491Y-13828484D01*
X8222444Y-14018960D02*
X8203396Y-14028484D01*
X8203396Y-14028484D02*
X8165301Y-14028484D01*
X8165301Y-14028484D02*
X8146253Y-14018960D01*
X8146253Y-14018960D02*
X8136730Y-13999912D01*
X8136730Y-13999912D02*
X8136730Y-13923722D01*
X8136730Y-13923722D02*
X8146253Y-13904674D01*
X8146253Y-13904674D02*
X8165301Y-13895150D01*
X8165301Y-13895150D02*
X8203396Y-13895150D01*
X8203396Y-13895150D02*
X8222444Y-13904674D01*
X8222444Y-13904674D02*
X8231968Y-13923722D01*
X8231968Y-13923722D02*
X8231968Y-13942769D01*
X8231968Y-13942769D02*
X8136730Y-13961817D01*
X8308158Y-14018960D02*
X8327206Y-14028484D01*
X8327206Y-14028484D02*
X8365301Y-14028484D01*
X8365301Y-14028484D02*
X8384349Y-14018960D01*
X8384349Y-14018960D02*
X8393873Y-13999912D01*
X8393873Y-13999912D02*
X8393873Y-13990388D01*
X8393873Y-13990388D02*
X8384349Y-13971341D01*
X8384349Y-13971341D02*
X8365301Y-13961817D01*
X8365301Y-13961817D02*
X8336730Y-13961817D01*
X8336730Y-13961817D02*
X8317682Y-13952293D01*
X8317682Y-13952293D02*
X8308158Y-13933246D01*
X8308158Y-13933246D02*
X8308158Y-13923722D01*
X8308158Y-13923722D02*
X8317682Y-13904674D01*
X8317682Y-13904674D02*
X8336730Y-13895150D01*
X8336730Y-13895150D02*
X8365301Y-13895150D01*
X8365301Y-13895150D02*
X8384349Y-13904674D01*
X8460539Y-14104674D02*
X8470063Y-14095150D01*
X8470063Y-14095150D02*
X8489111Y-14066579D01*
X8489111Y-14066579D02*
X8498634Y-14047531D01*
X8498634Y-14047531D02*
X8508158Y-14018960D01*
X8508158Y-14018960D02*
X8517682Y-13971341D01*
X8517682Y-13971341D02*
X8517682Y-13933246D01*
X8517682Y-13933246D02*
X8508158Y-13885627D01*
X8508158Y-13885627D02*
X8498634Y-13857055D01*
X8498634Y-13857055D02*
X8489111Y-13838008D01*
X8489111Y-13838008D02*
X8470063Y-13809436D01*
X8470063Y-13809436D02*
X8460539Y-13799912D01*
X3395000Y-14301000D02*
X3495000Y-14201000D01*
X3395000Y-14101000D01*
X3295000Y-14201000D01*
X3395000Y-14301000D01*
X3841491Y-14159150D02*
X3841491Y-14292484D01*
X3793872Y-14082960D02*
X3746253Y-14225817D01*
X3746253Y-14225817D02*
X3870062Y-14225817D01*
X3946253Y-14273436D02*
X3955777Y-14282960D01*
X3955777Y-14282960D02*
X3946253Y-14292484D01*
X3946253Y-14292484D02*
X3936729Y-14282960D01*
X3936729Y-14282960D02*
X3946253Y-14273436D01*
X3946253Y-14273436D02*
X3946253Y-14292484D01*
X4022443Y-14092484D02*
X4146253Y-14092484D01*
X4146253Y-14092484D02*
X4079586Y-14168674D01*
X4079586Y-14168674D02*
X4108158Y-14168674D01*
X4108158Y-14168674D02*
X4127205Y-14178198D01*
X4127205Y-14178198D02*
X4136729Y-14187722D01*
X4136729Y-14187722D02*
X4146253Y-14206769D01*
X4146253Y-14206769D02*
X4146253Y-14254388D01*
X4146253Y-14254388D02*
X4136729Y-14273436D01*
X4136729Y-14273436D02*
X4127205Y-14282960D01*
X4127205Y-14282960D02*
X4108158Y-14292484D01*
X4108158Y-14292484D02*
X4051015Y-14292484D01*
X4051015Y-14292484D02*
X4031967Y-14282960D01*
X4031967Y-14282960D02*
X4022443Y-14273436D01*
X4270063Y-14092484D02*
X4289110Y-14092484D01*
X4289110Y-14092484D02*
X4308158Y-14102008D01*
X4308158Y-14102008D02*
X4317682Y-14111531D01*
X4317682Y-14111531D02*
X4327205Y-14130579D01*
X4327205Y-14130579D02*
X4336729Y-14168674D01*
X4336729Y-14168674D02*
X4336729Y-14216293D01*
X4336729Y-14216293D02*
X4327205Y-14254388D01*
X4327205Y-14254388D02*
X4317682Y-14273436D01*
X4317682Y-14273436D02*
X4308158Y-14282960D01*
X4308158Y-14282960D02*
X4289110Y-14292484D01*
X4289110Y-14292484D02*
X4270063Y-14292484D01*
X4270063Y-14292484D02*
X4251015Y-14282960D01*
X4251015Y-14282960D02*
X4241491Y-14273436D01*
X4241491Y-14273436D02*
X4231967Y-14254388D01*
X4231967Y-14254388D02*
X4222444Y-14216293D01*
X4222444Y-14216293D02*
X4222444Y-14168674D01*
X4222444Y-14168674D02*
X4231967Y-14130579D01*
X4231967Y-14130579D02*
X4241491Y-14111531D01*
X4241491Y-14111531D02*
X4251015Y-14102008D01*
X4251015Y-14102008D02*
X4270063Y-14092484D01*
X4460539Y-14092484D02*
X4479586Y-14092484D01*
X4479586Y-14092484D02*
X4498634Y-14102008D01*
X4498634Y-14102008D02*
X4508158Y-14111531D01*
X4508158Y-14111531D02*
X4517682Y-14130579D01*
X4517682Y-14130579D02*
X4527205Y-14168674D01*
X4527205Y-14168674D02*
X4527205Y-14216293D01*
X4527205Y-14216293D02*
X4517682Y-14254388D01*
X4517682Y-14254388D02*
X4508158Y-14273436D01*
X4508158Y-14273436D02*
X4498634Y-14282960D01*
X4498634Y-14282960D02*
X4479586Y-14292484D01*
X4479586Y-14292484D02*
X4460539Y-14292484D01*
X4460539Y-14292484D02*
X4441491Y-14282960D01*
X4441491Y-14282960D02*
X4431967Y-14273436D01*
X4431967Y-14273436D02*
X4422444Y-14254388D01*
X4422444Y-14254388D02*
X4412920Y-14216293D01*
X4412920Y-14216293D02*
X4412920Y-14168674D01*
X4412920Y-14168674D02*
X4422444Y-14130579D01*
X4422444Y-14130579D02*
X4431967Y-14111531D01*
X4431967Y-14111531D02*
X4441491Y-14102008D01*
X4441491Y-14102008D02*
X4460539Y-14092484D01*
X4612920Y-14292484D02*
X4612920Y-14159150D01*
X4612920Y-14178198D02*
X4622444Y-14168674D01*
X4622444Y-14168674D02*
X4641491Y-14159150D01*
X4641491Y-14159150D02*
X4670063Y-14159150D01*
X4670063Y-14159150D02*
X4689110Y-14168674D01*
X4689110Y-14168674D02*
X4698634Y-14187722D01*
X4698634Y-14187722D02*
X4698634Y-14292484D01*
X4698634Y-14187722D02*
X4708158Y-14168674D01*
X4708158Y-14168674D02*
X4727205Y-14159150D01*
X4727205Y-14159150D02*
X4755777Y-14159150D01*
X4755777Y-14159150D02*
X4774825Y-14168674D01*
X4774825Y-14168674D02*
X4784348Y-14187722D01*
X4784348Y-14187722D02*
X4784348Y-14292484D01*
X4879586Y-14292484D02*
X4879586Y-14159150D01*
X4879586Y-14178198D02*
X4889110Y-14168674D01*
X4889110Y-14168674D02*
X4908158Y-14159150D01*
X4908158Y-14159150D02*
X4936729Y-14159150D01*
X4936729Y-14159150D02*
X4955777Y-14168674D01*
X4955777Y-14168674D02*
X4965301Y-14187722D01*
X4965301Y-14187722D02*
X4965301Y-14292484D01*
X4965301Y-14187722D02*
X4974825Y-14168674D01*
X4974825Y-14168674D02*
X4993872Y-14159150D01*
X4993872Y-14159150D02*
X5022444Y-14159150D01*
X5022444Y-14159150D02*
X5041491Y-14168674D01*
X5041491Y-14168674D02*
X5051015Y-14187722D01*
X5051015Y-14187722D02*
X5051015Y-14292484D01*
X5441491Y-14082960D02*
X5270063Y-14340103D01*
X5698634Y-14092484D02*
X5717682Y-14092484D01*
X5717682Y-14092484D02*
X5736729Y-14102008D01*
X5736729Y-14102008D02*
X5746253Y-14111531D01*
X5746253Y-14111531D02*
X5755777Y-14130579D01*
X5755777Y-14130579D02*
X5765301Y-14168674D01*
X5765301Y-14168674D02*
X5765301Y-14216293D01*
X5765301Y-14216293D02*
X5755777Y-14254388D01*
X5755777Y-14254388D02*
X5746253Y-14273436D01*
X5746253Y-14273436D02*
X5736729Y-14282960D01*
X5736729Y-14282960D02*
X5717682Y-14292484D01*
X5717682Y-14292484D02*
X5698634Y-14292484D01*
X5698634Y-14292484D02*
X5679586Y-14282960D01*
X5679586Y-14282960D02*
X5670063Y-14273436D01*
X5670063Y-14273436D02*
X5660539Y-14254388D01*
X5660539Y-14254388D02*
X5651015Y-14216293D01*
X5651015Y-14216293D02*
X5651015Y-14168674D01*
X5651015Y-14168674D02*
X5660539Y-14130579D01*
X5660539Y-14130579D02*
X5670063Y-14111531D01*
X5670063Y-14111531D02*
X5679586Y-14102008D01*
X5679586Y-14102008D02*
X5698634Y-14092484D01*
X5851015Y-14273436D02*
X5860539Y-14282960D01*
X5860539Y-14282960D02*
X5851015Y-14292484D01*
X5851015Y-14292484D02*
X5841491Y-14282960D01*
X5841491Y-14282960D02*
X5851015Y-14273436D01*
X5851015Y-14273436D02*
X5851015Y-14292484D01*
X6051015Y-14292484D02*
X5936729Y-14292484D01*
X5993872Y-14292484D02*
X5993872Y-14092484D01*
X5993872Y-14092484D02*
X5974825Y-14121055D01*
X5974825Y-14121055D02*
X5955777Y-14140103D01*
X5955777Y-14140103D02*
X5936729Y-14149627D01*
X6222444Y-14092484D02*
X6184348Y-14092484D01*
X6184348Y-14092484D02*
X6165301Y-14102008D01*
X6165301Y-14102008D02*
X6155777Y-14111531D01*
X6155777Y-14111531D02*
X6136729Y-14140103D01*
X6136729Y-14140103D02*
X6127206Y-14178198D01*
X6127206Y-14178198D02*
X6127206Y-14254388D01*
X6127206Y-14254388D02*
X6136729Y-14273436D01*
X6136729Y-14273436D02*
X6146253Y-14282960D01*
X6146253Y-14282960D02*
X6165301Y-14292484D01*
X6165301Y-14292484D02*
X6203396Y-14292484D01*
X6203396Y-14292484D02*
X6222444Y-14282960D01*
X6222444Y-14282960D02*
X6231967Y-14273436D01*
X6231967Y-14273436D02*
X6241491Y-14254388D01*
X6241491Y-14254388D02*
X6241491Y-14206769D01*
X6241491Y-14206769D02*
X6231967Y-14187722D01*
X6231967Y-14187722D02*
X6222444Y-14178198D01*
X6222444Y-14178198D02*
X6203396Y-14168674D01*
X6203396Y-14168674D02*
X6165301Y-14168674D01*
X6165301Y-14168674D02*
X6146253Y-14178198D01*
X6146253Y-14178198D02*
X6136729Y-14187722D01*
X6136729Y-14187722D02*
X6127206Y-14206769D01*
X6336729Y-14292484D02*
X6374825Y-14292484D01*
X6374825Y-14292484D02*
X6393872Y-14282960D01*
X6393872Y-14282960D02*
X6403396Y-14273436D01*
X6403396Y-14273436D02*
X6422444Y-14244865D01*
X6422444Y-14244865D02*
X6431967Y-14206769D01*
X6431967Y-14206769D02*
X6431967Y-14130579D01*
X6431967Y-14130579D02*
X6422444Y-14111531D01*
X6422444Y-14111531D02*
X6412920Y-14102008D01*
X6412920Y-14102008D02*
X6393872Y-14092484D01*
X6393872Y-14092484D02*
X6355777Y-14092484D01*
X6355777Y-14092484D02*
X6336729Y-14102008D01*
X6336729Y-14102008D02*
X6327206Y-14111531D01*
X6327206Y-14111531D02*
X6317682Y-14130579D01*
X6317682Y-14130579D02*
X6317682Y-14178198D01*
X6317682Y-14178198D02*
X6327206Y-14197246D01*
X6327206Y-14197246D02*
X6336729Y-14206769D01*
X6336729Y-14206769D02*
X6355777Y-14216293D01*
X6355777Y-14216293D02*
X6393872Y-14216293D01*
X6393872Y-14216293D02*
X6412920Y-14206769D01*
X6412920Y-14206769D02*
X6422444Y-14197246D01*
X6422444Y-14197246D02*
X6431967Y-14178198D01*
X6498634Y-14092484D02*
X6622444Y-14092484D01*
X6622444Y-14092484D02*
X6555777Y-14168674D01*
X6555777Y-14168674D02*
X6584348Y-14168674D01*
X6584348Y-14168674D02*
X6603396Y-14178198D01*
X6603396Y-14178198D02*
X6612920Y-14187722D01*
X6612920Y-14187722D02*
X6622444Y-14206769D01*
X6622444Y-14206769D02*
X6622444Y-14254388D01*
X6622444Y-14254388D02*
X6612920Y-14273436D01*
X6612920Y-14273436D02*
X6603396Y-14282960D01*
X6603396Y-14282960D02*
X6584348Y-14292484D01*
X6584348Y-14292484D02*
X6527206Y-14292484D01*
X6527206Y-14292484D02*
X6508158Y-14282960D01*
X6508158Y-14282960D02*
X6498634Y-14273436D01*
X6698634Y-14092484D02*
X6698634Y-14130579D01*
X6774825Y-14092484D02*
X6774825Y-14130579D01*
X7070063Y-14368674D02*
X7060539Y-14359150D01*
X7060539Y-14359150D02*
X7041491Y-14330579D01*
X7041491Y-14330579D02*
X7031968Y-14311531D01*
X7031968Y-14311531D02*
X7022444Y-14282960D01*
X7022444Y-14282960D02*
X7012920Y-14235341D01*
X7012920Y-14235341D02*
X7012920Y-14197246D01*
X7012920Y-14197246D02*
X7022444Y-14149627D01*
X7022444Y-14149627D02*
X7031968Y-14121055D01*
X7031968Y-14121055D02*
X7041491Y-14102008D01*
X7041491Y-14102008D02*
X7060539Y-14073436D01*
X7060539Y-14073436D02*
X7070063Y-14063912D01*
X7231968Y-14159150D02*
X7231968Y-14292484D01*
X7184348Y-14082960D02*
X7136729Y-14225817D01*
X7136729Y-14225817D02*
X7260539Y-14225817D01*
X7489110Y-14292484D02*
X7489110Y-14092484D01*
X7574825Y-14292484D02*
X7574825Y-14187722D01*
X7574825Y-14187722D02*
X7565301Y-14168674D01*
X7565301Y-14168674D02*
X7546253Y-14159150D01*
X7546253Y-14159150D02*
X7517682Y-14159150D01*
X7517682Y-14159150D02*
X7498634Y-14168674D01*
X7498634Y-14168674D02*
X7489110Y-14178198D01*
X7698634Y-14292484D02*
X7679587Y-14282960D01*
X7679587Y-14282960D02*
X7670063Y-14273436D01*
X7670063Y-14273436D02*
X7660539Y-14254388D01*
X7660539Y-14254388D02*
X7660539Y-14197246D01*
X7660539Y-14197246D02*
X7670063Y-14178198D01*
X7670063Y-14178198D02*
X7679587Y-14168674D01*
X7679587Y-14168674D02*
X7698634Y-14159150D01*
X7698634Y-14159150D02*
X7727206Y-14159150D01*
X7727206Y-14159150D02*
X7746253Y-14168674D01*
X7746253Y-14168674D02*
X7755777Y-14178198D01*
X7755777Y-14178198D02*
X7765301Y-14197246D01*
X7765301Y-14197246D02*
X7765301Y-14254388D01*
X7765301Y-14254388D02*
X7755777Y-14273436D01*
X7755777Y-14273436D02*
X7746253Y-14282960D01*
X7746253Y-14282960D02*
X7727206Y-14292484D01*
X7727206Y-14292484D02*
X7698634Y-14292484D01*
X7879587Y-14292484D02*
X7860539Y-14282960D01*
X7860539Y-14282960D02*
X7851015Y-14263912D01*
X7851015Y-14263912D02*
X7851015Y-14092484D01*
X8031968Y-14282960D02*
X8012920Y-14292484D01*
X8012920Y-14292484D02*
X7974825Y-14292484D01*
X7974825Y-14292484D02*
X7955777Y-14282960D01*
X7955777Y-14282960D02*
X7946253Y-14263912D01*
X7946253Y-14263912D02*
X7946253Y-14187722D01*
X7946253Y-14187722D02*
X7955777Y-14168674D01*
X7955777Y-14168674D02*
X7974825Y-14159150D01*
X7974825Y-14159150D02*
X8012920Y-14159150D01*
X8012920Y-14159150D02*
X8031968Y-14168674D01*
X8031968Y-14168674D02*
X8041491Y-14187722D01*
X8041491Y-14187722D02*
X8041491Y-14206769D01*
X8041491Y-14206769D02*
X7946253Y-14225817D01*
X8117682Y-14282960D02*
X8136730Y-14292484D01*
X8136730Y-14292484D02*
X8174825Y-14292484D01*
X8174825Y-14292484D02*
X8193872Y-14282960D01*
X8193872Y-14282960D02*
X8203396Y-14263912D01*
X8203396Y-14263912D02*
X8203396Y-14254388D01*
X8203396Y-14254388D02*
X8193872Y-14235341D01*
X8193872Y-14235341D02*
X8174825Y-14225817D01*
X8174825Y-14225817D02*
X8146253Y-14225817D01*
X8146253Y-14225817D02*
X8127206Y-14216293D01*
X8127206Y-14216293D02*
X8117682Y-14197246D01*
X8117682Y-14197246D02*
X8117682Y-14187722D01*
X8117682Y-14187722D02*
X8127206Y-14168674D01*
X8127206Y-14168674D02*
X8146253Y-14159150D01*
X8146253Y-14159150D02*
X8174825Y-14159150D01*
X8174825Y-14159150D02*
X8193872Y-14168674D01*
X8270063Y-14368674D02*
X8279587Y-14359150D01*
X8279587Y-14359150D02*
X8298634Y-14330579D01*
X8298634Y-14330579D02*
X8308158Y-14311531D01*
X8308158Y-14311531D02*
X8317682Y-14282960D01*
X8317682Y-14282960D02*
X8327206Y-14235341D01*
X8327206Y-14235341D02*
X8327206Y-14197246D01*
X8327206Y-14197246D02*
X8317682Y-14149627D01*
X8317682Y-14149627D02*
X8308158Y-14121055D01*
X8308158Y-14121055D02*
X8298634Y-14102008D01*
X8298634Y-14102008D02*
X8279587Y-14073436D01*
X8279587Y-14073436D02*
X8270063Y-14063912D01*
M02*
