M48
; DRILL file {KiCad 8.0.1} date 2024-03-19T22:23:23+0800
; FORMAT={-:-/ absolute / inch / decimal}
; #@! TF.CreationDate,2024-03-19T22:23:23+08:00
; #@! TF.GenerationSoftware,Kicad,Pcbnew,8.0.1
; #@! TF.FileFunction,Plated,1,2,PTH
FMAT,2
INCH
; #@! TA.AperFunction,Plated,PTH,ViaDrill
T1C0.0138
; #@! TA.AperFunction,Plated,PTH,ComponentDrill
T2C0.0281
; #@! TA.AperFunction,Plated,PTH,ComponentDrill
T3C0.0295
; #@! TA.AperFunction,Plated,PTH,ComponentDrill
T4C0.0394
; #@! TA.AperFunction,Plated,PTH,ComponentDrill
T5C0.1693
%
G90
G05
T1
X1.6598Y-3.7263
X1.8209Y-3.6555
X1.9242Y-4.6555
X2.1063Y-4.1772
X2.1063Y-4.2402
X2.1063Y-4.3071
X2.1063Y-4.3701
X2.124Y-3.8504
X2.1614Y-3.9173
X2.25Y-4.6565
X2.2657Y-4.1752
X2.2657Y-4.2402
X2.2657Y-4.3051
X2.3976Y-3.8504
X2.435Y-3.9469
X2.5325Y-4.251
X2.5482Y-4.1429
X2.5659Y-3.938
X2.5906Y-4.1949
X2.6457Y-4.0945
X2.6457Y-4.2933
X2.6732Y-3.8504
X2.6949Y-4.3917
X2.7106Y-3.935
X2.7402Y-4.3917
X2.8504Y-3.8504
X2.9488Y-3.8504
X2.9862Y-3.9016
X2.9862Y-4.1929
X2.9862Y-4.2933
X3.0074Y-4.5492
X3.0354Y-4.2429
X3.0748Y-3.9764
X3.0748Y-4.0433
X3.0748Y-4.3839
X3.0748Y-4.5492
X3.2264Y-3.8504
X3.3445Y-4.0079
X3.3445Y-4.0492
X3.4272Y-3.8504
X3.502Y-3.8504
X3.6201Y-4.0079
X3.6201Y-4.0492
X3.6358Y-3.9016
T2
X2.085Y-3.5197
X2.185Y-3.4197
X2.285Y-3.5197
X2.3606Y-3.5197
X2.4606Y-3.4197
X2.5606Y-3.5197
X2.6362Y-3.5197
X2.7362Y-3.4197
X2.8362Y-3.5197
X2.9118Y-3.5197
X3.0118Y-3.4197
X3.1118Y-3.5197
X3.1874Y-3.5197
X3.2874Y-3.4197
X3.3874Y-3.5197
X3.463Y-3.5197
X3.563Y-3.4197
X3.663Y-3.5197
T3
X2.1457Y-3.2146
X2.2244Y-3.2146
X2.4016Y-4.5492
X2.4016Y-4.628
X2.4213Y-3.2146
X2.4803Y-4.5492
X2.4803Y-4.628
X2.5Y-3.2146
X2.5591Y-4.5492
X2.5591Y-4.628
X2.6378Y-4.5492
X2.6378Y-4.628
X2.6969Y-3.2146
X2.7756Y-3.2146
X2.8346Y-4.6575
X2.9134Y-4.6575
X2.9724Y-3.2146
X2.9921Y-4.6575
X3.0512Y-3.2146
X3.0709Y-4.6575
X3.248Y-3.2146
X3.2677Y-4.6575
X3.3268Y-3.2146
X3.3465Y-4.6575
X3.5236Y-3.2146
X3.5433Y-4.6575
X3.6024Y-3.2146
X3.622Y-4.6575
T4
X1.9723Y-3.6447
X1.9723Y-3.7447
X1.9723Y-3.8447
X1.9723Y-3.9447
X1.9723Y-4.0447
X1.9723Y-4.1447
X1.9723Y-4.2447
X1.9723Y-4.3447
X3.7723Y-3.6447
X3.7723Y-3.7447
X3.7723Y-3.8447
X3.7723Y-3.9447
X3.7723Y-4.0447
X3.7723Y-4.1447
X3.7723Y-4.2447
X3.7723Y-4.3447
T5
X1.6142Y-3.189
X1.6142Y-4.685
X4.2913Y-3.189
X4.2913Y-4.685
M30
