%TF.GenerationSoftware,KiCad,Pcbnew,8.0.1*%
%TF.CreationDate,2024-03-19T22:23:20+08:00*%
%TF.ProjectId,NVF2-SCS-Check-Indicate,4e564632-2d53-4435-932d-436865636b2d,1*%
%TF.SameCoordinates,Original*%
%TF.FileFunction,Soldermask,Top*%
%TF.FilePolarity,Negative*%
%FSLAX46Y46*%
G04 Gerber Fmt 4.6, Leading zero omitted, Abs format (unit mm)*
G04 Created by KiCad (PCBNEW 8.0.1) date 2024-03-19 22:23:20*
%MOMM*%
%LPD*%
G01*
G04 APERTURE LIST*
G04 Aperture macros list*
%AMRoundRect*
0 Rectangle with rounded corners*
0 $1 Rounding radius*
0 $2 $3 $4 $5 $6 $7 $8 $9 X,Y pos of 4 corners*
0 Add a 4 corners polygon primitive as box body*
4,1,4,$2,$3,$4,$5,$6,$7,$8,$9,$2,$3,0*
0 Add four circle primitives for the rounded corners*
1,1,$1+$1,$2,$3*
1,1,$1+$1,$4,$5*
1,1,$1+$1,$6,$7*
1,1,$1+$1,$8,$9*
0 Add four rect primitives between the rounded corners*
20,1,$1+$1,$2,$3,$4,$5,0*
20,1,$1+$1,$4,$5,$6,$7,0*
20,1,$1+$1,$6,$7,$8,$9,0*
20,1,$1+$1,$8,$9,$2,$3,0*%
G04 Aperture macros list end*
%ADD10RoundRect,0.102000X-0.611000X-0.611000X0.611000X-0.611000X0.611000X0.611000X-0.611000X0.611000X0*%
%ADD11C,1.426000*%
%ADD12RoundRect,0.150000X-0.150000X0.587500X-0.150000X-0.587500X0.150000X-0.587500X0.150000X0.587500X0*%
%ADD13RoundRect,0.250000X0.625000X-0.312500X0.625000X0.312500X-0.625000X0.312500X-0.625000X-0.312500X0*%
%ADD14RoundRect,0.200000X0.275000X-0.200000X0.275000X0.200000X-0.275000X0.200000X-0.275000X-0.200000X0*%
%ADD15RoundRect,0.150000X0.150000X-0.587500X0.150000X0.587500X-0.150000X0.587500X-0.150000X-0.587500X0*%
%ADD16R,3.810000X4.240000*%
%ADD17RoundRect,0.250000X-0.350000X-0.350000X0.350000X-0.350000X0.350000X0.350000X-0.350000X0.350000X0*%
%ADD18C,1.200000*%
%ADD19RoundRect,0.225000X-0.225000X-0.250000X0.225000X-0.250000X0.225000X0.250000X-0.225000X0.250000X0*%
%ADD20C,4.700000*%
%ADD21C,7.500000*%
%ADD22O,1.700000X1.700000*%
%ADD23RoundRect,0.200000X0.200000X0.275000X-0.200000X0.275000X-0.200000X-0.275000X0.200000X-0.275000X0*%
%ADD24RoundRect,0.250000X0.350000X0.625000X-0.350000X0.625000X-0.350000X-0.625000X0.350000X-0.625000X0*%
%ADD25O,1.200000X1.750000*%
%ADD26RoundRect,0.225000X-0.250000X0.225000X-0.250000X-0.225000X0.250000X-0.225000X0.250000X0.225000X0*%
%ADD27RoundRect,0.250000X-0.350000X-0.625000X0.350000X-0.625000X0.350000X0.625000X-0.350000X0.625000X0*%
%ADD28RoundRect,0.218750X-0.256250X0.218750X-0.256250X-0.218750X0.256250X-0.218750X0.256250X0.218750X0*%
%ADD29RoundRect,0.200000X-0.275000X0.200000X-0.275000X-0.200000X0.275000X-0.200000X0.275000X0.200000X0*%
%ADD30R,1.000000X0.750000*%
%ADD31RoundRect,0.150000X-0.825000X-0.150000X0.825000X-0.150000X0.825000X0.150000X-0.825000X0.150000X0*%
G04 APERTURE END LIST*
D10*
%TO.C,RV104*%
X73960000Y-89400000D03*
D11*
X76500000Y-86860000D03*
X79040000Y-89400000D03*
%TD*%
D12*
%TO.C,Q102*%
X61850000Y-94475000D03*
X59950000Y-94475000D03*
X60900000Y-96350001D03*
%TD*%
%TO.C,Q104*%
X75850000Y-94675000D03*
X73950000Y-94675000D03*
X74900000Y-96550001D03*
%TD*%
D10*
%TO.C,RV102*%
X59960000Y-89400000D03*
D11*
X62500000Y-86860000D03*
X65040000Y-89400000D03*
%TD*%
D13*
%TO.C,R109*%
X92400000Y-97562500D03*
X92400000Y-94637500D03*
%TD*%
D14*
%TO.C,R105*%
X42160069Y-93498826D03*
X42160069Y-91848826D03*
%TD*%
D12*
%TO.C,Q101*%
X54900000Y-94500001D03*
X53000000Y-94500001D03*
X53950000Y-96375002D03*
%TD*%
D15*
%TO.C,D101*%
X45300000Y-110687500D03*
X47200000Y-110687500D03*
X46250000Y-108812499D03*
%TD*%
D13*
%TO.C,R108*%
X85400000Y-97562500D03*
X85400000Y-94637500D03*
%TD*%
D10*
%TO.C,RV101*%
X52960000Y-89400000D03*
D11*
X55500000Y-86860000D03*
X58040000Y-89400000D03*
%TD*%
D16*
%TO.C,F101*%
X43200000Y-104335000D03*
X43200000Y-97965000D03*
%TD*%
D17*
%TO.C,J101*%
X61000000Y-115550000D03*
D18*
X61000000Y-117550000D03*
X63000000Y-115550000D03*
X63000000Y-117550000D03*
X65000000Y-115550000D03*
X65000000Y-117550000D03*
X67000000Y-115550000D03*
X67000000Y-117550000D03*
%TD*%
D12*
%TO.C,Q103*%
X68850000Y-94425000D03*
X66950000Y-94425000D03*
X67900000Y-96300001D03*
%TD*%
D19*
%TO.C,C101*%
X75275000Y-100950000D03*
X76825000Y-100950000D03*
%TD*%
D15*
%TO.C,Q109*%
X88900000Y-102187500D03*
X90800000Y-102187500D03*
X89850000Y-100312499D03*
%TD*%
D10*
%TO.C,RV105*%
X80960000Y-89400000D03*
D11*
X83500000Y-86860000D03*
X86040000Y-89400000D03*
%TD*%
D20*
%TO.C,SG101*%
X41000000Y-81000000D03*
D21*
X41000000Y-81000000D03*
D20*
X41000000Y-119000000D03*
D21*
X41000000Y-119000000D03*
D20*
X109000000Y-81000000D03*
D21*
X109000000Y-81000000D03*
D20*
X109000000Y-119000000D03*
D21*
X109000000Y-119000000D03*
D22*
X50097404Y-92575000D03*
X50097404Y-95115000D03*
X50097404Y-97655000D03*
X50097404Y-100195000D03*
X50097404Y-102735000D03*
X50097404Y-105275000D03*
X50097404Y-107815000D03*
X50097404Y-110355000D03*
X95817404Y-92575000D03*
X95817404Y-95115000D03*
X95817404Y-97655000D03*
X95817404Y-100195000D03*
X95817404Y-102735000D03*
X95817404Y-105275000D03*
X95817404Y-107815000D03*
X95817404Y-110355000D03*
%TD*%
D23*
%TO.C,R103*%
X56250000Y-107700000D03*
X54600000Y-107700000D03*
%TD*%
D24*
%TO.C,D105*%
X70500000Y-81650000D03*
D25*
X68499999Y-81650000D03*
%TD*%
D15*
%TO.C,Q106*%
X79887835Y-114924659D03*
X81787835Y-114924659D03*
X80837835Y-113049658D03*
%TD*%
D26*
%TO.C,C102*%
X76387835Y-112772159D03*
X76387835Y-114322159D03*
%TD*%
D23*
%TO.C,R101*%
X56250000Y-110970000D03*
X54600000Y-110970000D03*
%TD*%
D12*
%TO.C,Q105*%
X82850000Y-94650000D03*
X80950000Y-94650000D03*
X81900000Y-96525001D03*
%TD*%
D14*
%TO.C,R106*%
X78087835Y-114372159D03*
X78087835Y-112722159D03*
%TD*%
D27*
%TO.C,SW102*%
X72000000Y-118300000D03*
D25*
X74000000Y-118300000D03*
X76000000Y-118300000D03*
X78000000Y-118300000D03*
%TD*%
D28*
%TO.C,D102*%
X43960070Y-91873824D03*
X43960070Y-93448826D03*
%TD*%
D10*
%TO.C,RV103*%
X66960000Y-89400000D03*
D11*
X69500000Y-86860000D03*
X72040000Y-89400000D03*
%TD*%
D29*
%TO.C,R107*%
X74000000Y-112722159D03*
X74000000Y-114372159D03*
%TD*%
D15*
%TO.C,Q107*%
X81900000Y-102187500D03*
X83800000Y-102187500D03*
X82850000Y-100312499D03*
%TD*%
D23*
%TO.C,R104*%
X56250000Y-106050000D03*
X54600000Y-106050000D03*
%TD*%
D24*
%TO.C,D103*%
X56500000Y-81650000D03*
D25*
X54499999Y-81650000D03*
%TD*%
D24*
%TO.C,D106*%
X77500000Y-81650000D03*
D25*
X75499999Y-81650000D03*
%TD*%
D24*
%TO.C,D104*%
X63500000Y-81650000D03*
D25*
X61499999Y-81650000D03*
%TD*%
D12*
%TO.C,Q108*%
X89850000Y-94650000D03*
X87950000Y-94650000D03*
X88900000Y-96525001D03*
%TD*%
D30*
%TO.C,SW101*%
X56000000Y-122000000D03*
X50000000Y-122000000D03*
X56000000Y-118250000D03*
X50000000Y-118250000D03*
%TD*%
D10*
%TO.C,RV106*%
X87960000Y-89400000D03*
D11*
X90500000Y-86860000D03*
X93040000Y-89400000D03*
%TD*%
D24*
%TO.C,D107*%
X84500000Y-81650000D03*
D25*
X82499999Y-81650000D03*
%TD*%
D27*
%TO.C,J102*%
X83000000Y-118300000D03*
D25*
X85000000Y-118300000D03*
%TD*%
D23*
%TO.C,R102*%
X56250000Y-109350000D03*
X54600000Y-109350000D03*
%TD*%
D31*
%TO.C,U101*%
X69025000Y-102690000D03*
X69025000Y-103960000D03*
X69025000Y-105230000D03*
X69025000Y-106500000D03*
X69025000Y-107770000D03*
X69025000Y-109040000D03*
X69025000Y-110310000D03*
X73975000Y-110310000D03*
X73975000Y-109040000D03*
X73975000Y-107770000D03*
X73975000Y-106500000D03*
X73975000Y-105230000D03*
X73975000Y-103960000D03*
X73975000Y-102690000D03*
%TD*%
D24*
%TO.C,D108*%
X91500000Y-81650000D03*
D25*
X89499999Y-81650000D03*
%TD*%
D27*
%TO.C,J103*%
X90000000Y-118300000D03*
D25*
X92000000Y-118300000D03*
%TD*%
M02*
